<svg xmlns="http://www.w3.org/2000/svg" version="1.1" width="600px" height="600px" viewBox="0 0 200 200" style="overflow:hidden!important;"><defs id="SvgjsDefs4961"></defs><g id="svga-group-wrapper"><g id="svga-group-backs-single"><path id="SvgjsPath5435" d="M0 0h200v200H0V0z" fill="#c4c7f3" stroke-width="none" opacity="1"></path></g><g id="svga-group-humanwrap-move" transform="matrix(1,0,0,1,0,0)"><g id="svga-group-humanwrap" transform="matrix(1,0,0,1,0,0)"><g id="svga-group-hair-back-move" transform="matrix(1,0,0,1,0,0)"><g id="svga-group-hair-back" transform="matrix(1,0,0,1,0,0)"></g></g><g id="svga-group-humanbody-back"><path id="SvgjsPath5265" d="m168.5 219.5-1.7-21.5s.7-9-8.8-15.3-23.4-10.1-29.5-14.2c-6.1-4.1-9.2-4.5-9-16.9s.9-40.3.9-40.3H79.6s.7 27.9.9 40.3c.2 12.4-2.9 12.8-9 16.9-6.1 4.1-20 7.9-29.5 14.2S33.2 198 33.2 198l-1.6 21.5h136.9z" fill="#ebaa82" stroke-width="none" opacity="1" stroke="none"></path></g><g id="svga-group-chinshadow-single"><path id="SvgjsPath5503" d="M100 160.9s9.1.44 19.5-7.32c-.01-.63-.01-1.28 0-1.98.2-12.4.9-40.3.9-40.3H79.6s.7 27.9.9 40.3c.01.7.01 1.36 0 1.98 10.4 7.76 19.5 7.32 19.5 7.32z" fill="#cc7b48" stroke-width="none" opacity="0.65" stroke="none"></path></g><g id="svga-group-humanbody-front"><path id="SvgjsPath5266" d="M73.8 175.9c5.1 2.9 11.8 5.2 17.6 5.7.4 0 .4-.6.1-.7-2.8-1.1-5.9-1.7-8.8-2.6-2.9-.9-5.8-2-8.8-2.7-.1-.1-.3.2-.1.3zm35.2 6.2c5.3-.6 11.3-3 15.9-5.8.3-.2.1-.6-.2-.5-2.6.9-5.2 2-7.8 2.9-2.6.9-5.4 1.5-8 2.5-.5.1-.5.9.1.9z" fill="#cc7b48" stroke-width="none" opacity="1" stroke="none"></path><path id="SvgjsPath5267" d="m168.4 219.4-2.1-21.4c0-2.2-.5-4.5-1.5-6.6-.9-2.1-2.3-3.9-3.9-5.5s-3.5-2.8-5.5-4c-2-1.2-4.1-2.2-6.2-3.1-4.2-1.9-8.6-3.6-12.9-5.4-2.2-.9-4.3-1.9-6.4-3-1.1-.6-2.1-1.2-3-1.9-1-.6-2-1.2-3-1.9s-2-1.5-2.8-2.6c-.8-1-1.3-2.2-1.7-3.4-.7-2.4-.8-4.8-.8-7.2 0-4.7.2-9.4.3-14.1.2-9.4.6-18.7.9-28l.6.6-20.4-.2-20.4-.1.3-.3.7 28c.1 4.7.3 9.3.4 14 0 2.4-.1 4.7-.8 7.1-.3 1.2-.9 2.3-1.6 3.3-.8 1-1.7 1.8-2.7 2.5s-2 1.3-2.9 2c-.9.6-1.9 1.3-3 1.9-2.1 1.2-4.2 2.1-6.4 3.1-4.3 1.9-8.6 3.6-12.8 5.6-2.1 1-4.2 2.1-6.1 3.2-2 1.2-3.8 2.4-5.4 4-1.6 1.6-2.9 3.4-3.8 5.4-.4 1-.8 2.1-1 3.1-.2 1.1-.4 2.2-.3 3.2v.2l-1.5 21.5-1-1.1 34 .1c11.3 0 22.7.1 34.1.2l34.2.3 34.4.5zm.2.2-34 .4-34.2.3c-11.4.1-22.9.2-34.4.2l-34.4.1h-1.1l.1-1.1 1.7-21.5v.1c-.1-5.1 2.2-9.8 5.7-13.3 1.7-1.7 3.8-3.1 5.8-4.3 2-1.2 4.2-2.2 6.3-3.2 4.3-2 8.7-3.7 13-5.4 2.1-.9 4.3-1.8 6.3-2.9 1-.5 1.9-1.1 3-1.8 1-.6 2-1.2 2.9-1.9.9-.6 1.8-1.4 2.4-2.2.7-.9 1.2-1.9 1.5-2.9.6-2.1.8-4.5.8-6.8 0-4.6-.1-9.3-.2-14l-.6-28v-.3h.3l20.4-.1 20.4-.2h.6v.6c-.1 9.3-.2 18.7-.4 28-.1 4.7-.2 9.4-.2 14 .1 2.3.2 4.6.8 6.7.3 1.1.8 2 1.4 2.9.6.8 1.4 1.6 2.4 2.2.9.6 1.9 1.3 2.9 1.9 1 .7 1.9 1.3 2.9 1.8 2 1.1 4.1 2.1 6.3 3 4.3 1.8 8.6 3.6 12.9 5.6 2.1 1 4.2 2.1 6.2 3.3 2 1.2 4 2.6 5.7 4.3 3.4 3.4 5.6 8.1 5.4 13v-.1l1.4 21.6zm-112.8-.4 1.9-13.8.1 13.8h-2zm88.6 0-1.9-13.8-.1 13.8h2z" fill="#bd6630" stroke-width="none" opacity="1" stroke="none"></path></g><g id="svga-group-clothes-single"><path id="SvgjsPath5634" d="m50.8 220 8.2-26.1 40.6 18.4 41.4-18.4 8.2 26.1z" fill="#152c5e" stroke-width="none" opacity="1"></path><path id="SvgjsPath5635" d="m150.1 219.7-4.3-13-4.3-13 7.7-16.3-1.8-.8-6.5 16.9c-3.4 1.6-6.9 3.2-10.3 4.7-3.4 1.5-6.9 3.1-10.3 4.6-6.8 3-13.7 5.9-20.6 8.8l-9.8-4.7c-3.4-1.6-6.7-3.1-10.1-4.7-6.8-3.1-13.6-6.1-20.4-9.1h-.2l-5.9-17.3-1.9.7 7.1 16.8c-.1.1-.1.2-.1.3l-4 13.4-3.7 13 24.2.5 24.6.4 12.4.1h12.4l24.8-.1h.3c.6-.2.8-.7.7-1.2zm-37.4-.7-12.2.1-24.6.4-25 .5 4.5-13.1 4.1-11.9 19.5 9c3.4 1.5 6.8 3.1 10.2 4.5l10.2 4.4c.2.1.3.1.5 0 6.8-3.2 13.7-6.4 20.6-9.5 3.4-1.6 6.9-3 10.4-4.6 3.3-1.4 6.6-2.9 9.9-4.3l3.7 12.6 3.6 11.9-23.2-.1-12.2.1z" fill="#01153f" stroke-width="none" opacity="1"></path></g><g id="svga-group-head" transform="matrix(1,0,0,1,0,0)"><g id="svga-group-ears-left-move" transform="matrix(1,0,0,1,0,0)"><g id="svga-group-ears-left" transform="matrix(1,0,0,1,0,0)"><path id="SvgjsPath5456" d="M65.1 101.2s-1.7-4.8-3.2-7.5-3.4-6-6.3-6.8c-2.9-.8-3.8 3.7-2.7 7.8 1.1 4.1 4 13.1 4.7 16.6s1.7 7.7 3.4 7.1 6.8-7.1 4.1-17.2z" fill="#ebaa82" stroke-width="none" opacity="1" stroke="none"></path><path id="SvgjsPath5457" d="M65.9 105.9c.1 1.6.1 3.2-.1 4.8-.5 3.1-1.8 6-3.8 7.9l-.4.3c-.2.1-.3.2-.5.3-.4.1-.9 0-1.3-.3-.7-.6-1.1-1.4-1.4-2.2-.6-1.6-.9-3.1-1.2-4.7-.3-1.5-.7-3-1.1-4.6l-1.2-4.6c-.4-1.5-.8-3-1.3-4.6l-.5-2.2c-.2-.8-.4-1.5-.6-2.3-.2-.8-.2-1.6-.2-2.4s.1-1.6.3-2.4.6-1.5 1.1-2c.6-.5 1.3-.6 2-.4 1.3.3 2.5 1.1 3.5 2.2s1.8 2.5 2.5 3.8c.7 1.4 1.3 2.8 1.9 4.3.6 1.5 1.1 2.9 1.6 4.4.3 1.6.6 3.1.7 4.7zM61.1 93c-.8-1.3-1.6-2.4-2.5-3.4s-2-1.7-3.1-2c-.5-.2-1-.1-1.5.2-.4.3-.8.8-1 1.5-.4 1.3-.5 2.9-.2 4.5.1.8.3 1.5.5 2.3s.4 1.5.7 2.3c.5 1.5 1 3 1.4 4.5.5 1.5 1 3 1.4 4.5.5 1.5.9 3 1.2 4.6.3 1.5.7 3.1 1.2 4.4.3.7.6 1.3.9 1.5.2.1.3.2.5.1.1 0 .2-.1.3-.2l.3-.3c.9-.8 1.6-1.9 2.3-3.1.6-1.2 1.1-2.5 1.5-3.9.7-2.8.6-6.1-.2-9.2-.9-3-2.1-5.8-3.7-8.3z" fill="#dc9164" stroke-width="none" opacity="1" stroke="none"></path><path id="SvgjsPath5458" d="M53.8 89.9c1.8-.8 3.4 1.3 4.6 3.1 1.5 2.3 2.5 5.2 2.8 8.2v.2c0 .2 0 .5.1.7 0 .2-.2.2-.2 0-.1-.4-.2-.8-.3-1.3 0-.1-.1-.2-.2-.3-1.2-.6-1.7-.3-1.7.8 0 .7.1 1.4.3 2.1.3 1.1.8 2.2 1.2 3.3.1.2-.2.4-.3.2-.9-1.5-2.4-5-1.4-6.8.5-.9 1.3-.8 1.8-.2-.5-1.9-1.1-4.1-2.1-5.9-2 4.2-.9 8.7.1 13.4 0 .2-.2.3-.2.1-1.3-4.4-2.6-10.1 0-13.7-1.1-2.1-2.6-3.7-4.5-3.6-.1.1-.2-.2 0-.3z" fill="#cc7b48" stroke-width="none" opacity="1" stroke="none"></path><path id="SvgjsPath5459" d="M61.1 108.8c.1 1.1 0 2.2-.5 3-.1.1-.2 0-.1-.1.3-.9.6-1.8.5-2.9-.1-.1 0-.2.1 0z" fill="#cc7b48" stroke-width="none" opacity="1" stroke="none"></path></g></g><g id="svga-group-ears-right-move" transform="matrix(1,0,0,1,0,0)"><g id="svga-group-ears-right" transform="matrix(1,0,0,1,0,0)"><path id="SvgjsPath5460" d="M134.9 101.2s1.7-4.8 3.2-7.5 3.4-6 6.3-6.8c2.9-.8 3.8 3.7 2.7 7.8-1.1 4.1-4 13.1-4.7 16.6s-1.7 7.7-3.4 7.1-6.8-7.1-4.1-17.2z" fill="#ebaa82" stroke-width="none" opacity="1" stroke="none"></path><path id="SvgjsPath5461" d="M134.9 101.2c.5-1.5 1.1-2.9 1.6-4.4s1.2-2.9 1.9-4.3 1.5-2.7 2.5-3.8c1-1.1 2.2-2 3.5-2.2.7-.2 1.4 0 2 .4.6.5.9 1.2 1.1 2 .2.8.3 1.6.3 2.4s-.1 1.6-.2 2.4c-.1.8-.4 1.6-.6 2.3l-.6 2.3c-.4 1.5-.8 3-1.3 4.6l-1.2 4.6c-.4 1.5-.8 3-1.1 4.6s-.6 3.2-1.2 4.7c-.3.8-.6 1.6-1.4 2.2-.4.3-.9.4-1.3.3-.2-.1-.3-.2-.5-.3l-.4-.3c-2-1.9-3.3-4.8-3.8-7.9-.3-1.6-.3-3.2-.1-4.8.1-1.7.4-3.2.8-4.8zm.1.1c-.8 3-.9 6.3-.2 9.2.4 1.4.9 2.7 1.5 3.9.6 1.2 1.4 2.3 2.3 3.1l.3.3c.1 0 .2.1.3.2.2.1.3 0 .5-.1.3-.3.7-.9.9-1.5.5-1.3.9-2.9 1.2-4.4.3-1.6.8-3.1 1.2-4.6.5-1.5 1-3 1.4-4.5.5-1.5 1-3 1.4-4.5.2-.7.5-1.5.7-2.3s.4-1.5.5-2.3c.3-1.5.2-3.1-.2-4.5-.2-.6-.6-1.2-1-1.5s-1-.3-1.5-.2c-1.1.3-2.1 1.1-3.1 2-.9 1-1.7 2.2-2.5 3.4-1.4 2.5-2.6 5.3-3.7 8.3z" fill="#dc9164" stroke-width="none" opacity="1" stroke="none"></path><path id="SvgjsPath5462" d="M146.2 89.9c-1.8-.8-3.4 1.3-4.6 3.1-1.5 2.3-2.5 5.2-2.8 8.2v.2c0 .2 0 .5-.1.7 0 .2.2.2.2 0 .1-.4.2-.8.3-1.3 0-.1.1-.2.2-.3 1.2-.6 1.7-.3 1.7.8 0 .7-.1 1.4-.3 2.1-.3 1.1-.8 2.2-1.2 3.3-.1.2.2.4.3.2.9-1.5 2.4-5 1.4-6.8-.5-.9-1.3-.8-1.8-.2.5-1.9 1.1-4.1 2.1-5.9 2 4.2.9 8.7-.1 13.4 0 .2.2.3.2.1 1.3-4.4 2.6-10.1 0-13.7 1.1-2.1 2.6-3.7 4.5-3.6.1.1.2-.2 0-.3z" fill="#cc7b48" stroke-width="none" opacity="1" stroke="none"></path><path id="SvgjsPath5463" d="M138.9 108.8c-.1 1.1 0 2.2.5 3 .1.1.2 0 .1-.1-.3-.9-.6-1.8-.5-2.9.1-.1 0-.2-.1 0z" fill="#cc7b48" stroke-width="none" opacity="1" stroke="none"></path></g></g><g id="svga-group-faceshape-wrap" transform="matrix(1,0,0,1,0,0)"><g id="svga-group-faceshape-single"><path id="SvgjsPath5492" d="M141 85.4c-1.2-28.5-19.61-43.51-40.91-43.51S60.2 57 59 85.4c0 0-.4 25.9 5.4 37.3 14.4 28.4 35.62 26.95 35.62 26.95s21.18 1.45 35.58-26.95c5.8-11.4 5.4-37.3 5.4-37.3z" fill="#ebaa82" stroke-width="none" opacity="1" stroke="none"></path><path id="SvgjsPath5493" d="M135.6 122.7c5.8-11.4 5.49-37.32 5.49-37.32-1.2-28.5-19.79-44.08-41.09-44.08S60.2 57 59 85.4c0 0-.4 25.9 5.4 37.3 14.4 28.4 35.6 27.5 35.6 27.5s21.2.9 35.6-27.5zm-41.7 25.17c-2-.51-4-1.31-6-2.22-3.9-1.82-7.4-4.45-10.5-7.48-1.6-1.52-3-3.14-4.4-4.85 0 0-3.2-4.45-3.9-5.36-.3-.51-.6-.91-.9-1.42-.3-.51-.6-.91-.9-1.42l-1.8-3.24s-.9-2.12-1.1-2.63-.4-1.01-.5-1.62c-.2-.51-.3-1.11-.5-1.62-.6-2.12-1.1-4.35-1.5-6.57s-.8-4.45-1-6.78c-.6-4.55-.9-9.1-1.1-13.75v-3.34l.1-1.72c0-.61.1-1.11.1-1.72.1-1.11.3-2.22.4-3.44.1-.61.2-1.11.3-1.72 0 0 .3-1.31.4-1.62 1-4.45 2.5-8.8 4.8-12.64.5-1.01 1.2-1.92 1.8-2.83l1-1.31c.3-.4.7-.91 1.1-1.31 1.4-1.72 3-3.34 4.7-4.75 3.4-2.83 7.3-4.96 11.4-6.47 4.1-1.42 8.4-2.12 12.8-2.22 2.2-.1 11 1.11 11.3 1.21 4.91 1.22 9.7 3.54 13.3 5.97.9.61 1.8 1.31 2.6 2.02l1.3 1.11 1.2 1.11c1.6 1.62 3 3.34 4.3 5.16.3.51 1.9 2.83 1.9 2.83.3.51 1.6 3.03 1.6 3.03.5 1.01.9 2.12 1.4 3.14.4 1.11.8 2.12 1.1 3.24.4 1.11.6 2.22.9 3.34.1.61.7 3.34.7 3.34l.28 1.94c.1.61.18 2.74.18 2.74l.06.93s-.01 8.78-.31 12.32-.51 6.76-1.11 10.3c-.3 1.72-.7 3.54-1.1 5.26-.4 1.72-.9 3.44-1.5 5.06s-1.2 3.24-2 4.75l-1.3 2.22c-.4.81-.9 1.52-1.4 2.22-1.9 2.93-4 5.66-6.3 8.19s-4.8 4.85-7.5 6.88c-1.4 1.01-2.8 1.92-4.2 2.73-1.5.81-3 1.52-4.5 2.12-.4.2-2 .71-2.4.81-.8.2-1.6.4-2.4.61s-6.63.63-10.9-.53z" fill="#bd6630" stroke-width="none" opacity="1" stroke="none"></path></g></g><g id="svga-group-mouth-single-move" transform="matrix(1,0,0,1,0,0)"><g id="svga-group-mouth-single" transform="matrix(1,0,0,1,0,0)"><path id="SvgjsPath5440" d="M88 129s.3-1.3 2.7-3.1c2.4-1.8 7.3-2.9 11.5-2.6s8.2 3 9.8 5.3c0 0 .3.7-.5 2-.8 1.4-2.9 4.2-8.7 4.3s-9.1-.1-11.6-1.6c-2.6-1.5-3.3-4.1-3.2-4.3z" fill="#ff5027" stroke-width="none" opacity="1" transform="translate(0 3)" stroke="none"></path><path id="SvgjsPath5441" d="M114 127.6c-4.4 1.8-8.6.3-13.1.1-2-.1-4 .1-6 .5-2.7.6-5.9 1.8-8-.7-.6-.7-1.8.5-1.1 1.1 1.5 1.2 3.2 1.4 5.1 1.2 2.9-.4 5.6-1.3 8.6-1.3 4.8 0 10.4 2.7 15 .2.7-.2.2-1.3-.5-1.1z" fill="#f0380d" stroke-width="none" opacity="1" transform="translate(0 3)" stroke="none"></path><path id="SvgjsPath5442" d="M89.7 128.2c1.6-1.4 3.3-2.1 5.2-3 .2-.1 0-.3-.1-.3-2 .4-4.3 1.2-5.3 3.1-.1.2.1.3.2.2z" fill="#ff6541" stroke-width="none" opacity="1" transform="translate(0 3)" stroke="none"></path><path id="SvgjsPath5443" d="M110 130.9c-1.7.9-3.3 1.8-5.1 2.3-1.8.5-3.7.5-5.6.6-.2 0-.2.3 0 .3 3.6.7 8.2-.3 11-2.8.2-.2-.1-.5-.3-.4z" fill="#ff6541" stroke-width="none" opacity="1" transform="translate(0 3)" stroke="none"></path></g></g><g id="svga-group-eyes-left-move" transform="matrix(1,0,0,1,0,0)"><g id="svga-group-eyes-left" transform="matrix(1,0,0,1,0,0)"><g id="svga-group-eyesback-left"><path id="SvgjsPath5549" d="M92.3 99.5s-1.4-2.7-3.1-3.9c-1.7-1.3-4.6-3.1-9.3-2.1-4.7.9-8 4.7-8 4.7s5.9 2.2 11.3 2.2c5.3-.1 9.1-.9 9.1-.9z" fill="#ffffff" stroke-width="none" opacity="1"></path></g><g id="svga-group-eyesiriswrapper-left" transform="matrix(1,0,0,1,0,0)"><g id="svga-group-eyesiriscontrol-left" transform="matrix(1,0,0,1,0,0)"><g id="svga-group-eyesiris-left" transform="matrix(1,0,0,1,0,0)"><path id="SvgjsPath5507" d="M82.1 91.3c2.8 0 5.1 2.3 5.1 5.1s-2.3 5.1-5.1 5.1-5.1-2.3-5.1-5.1 2.3-5.1 5.1-5.1z" fill="#9fae70" stroke-width="none" opacity="1"></path><path id="SvgjsPath5508" d="M86.5 93.6c.4.6.6 1.2.8 1.9.2.7.2 1.4.1 2.1s-.4 1.4-.8 2-.9 1.1-1.5 1.5-1.3.6-2 .7-1.4.1-2.1-.1c-1.3-.3-2.6-1.1-3.4-2.2-.4-.6-.7-1.2-.9-1.9-.2-.7-.2-1.4 0-2.1.1-.7.4-1.4.8-2s.9-1.1 1.5-1.5 1.3-.7 2-.8 1.4-.1 2.1.1c1.5.3 2.6 1.2 3.4 2.3zm-.1.1-.3-.4c-.1-.1-.2-.2-.3-.4-.1-.1-.2-.2-.4-.3-.1-.1-.3-.2-.4-.3-.6-.3-1.2-.6-1.8-.7-1.3-.2-2.6.1-3.6.8-1.1.7-1.8 1.8-2.1 3-.3 1.2-.1 2.6.6 3.7.3.6.8 1.1 1.3 1.4.5.4 1.2.7 1.8.8.7.1 1.3.1 1.9-.1s1.2-.4 1.8-.8c.5-.4 1-.8 1.3-1.3.4-.5.7-1.1.8-1.7.2-.6.2-1.3.2-1.9-.2-.6-.4-1.3-.8-1.8z" fill="#7c8f40" stroke-width="none" opacity="1"></path><path id="SvgjsPath5509" d="M82.1 94.6c1 0 1.8.8 1.8 1.8s-.8 1.8-1.8 1.8-1.8-.8-1.8-1.8.8-1.8 1.8-1.8z" fill="#000000" stroke-width="none" opacity="1"></path><path id="SvgjsPath5510" d="M82.1 98.4c-1.1 0-2-.9-2-2s.9-2 2-2 2 .9 2 2c0 1.2-.9 2-2 2zm0-3.6c-.9 0-1.7.7-1.7 1.7s.7 1.7 1.7 1.7c.9 0 1.7-.7 1.7-1.7s-.8-1.7-1.7-1.7z" fill="#7c8f40" stroke-width="none" opacity="1"></path><path id="SvgjsPath5511" d="M79.7 92.6c.4-.2 1.1.2 1.6 1.1.5.8.5 1.7.1 1.9-.4.2-1.1-.2-1.6-1.1-.4-.8-.5-1.7-.1-1.9zm3.6 4.8c.3 0 .6.3.6.6s-.3.6-.6.6-.6-.3-.6-.6.3-.6.6-.6z" fill="#ffffff" stroke-width="none" opacity="1"></path></g></g></g><g id="svga-group-eyesfront-left"><path id="SvgjsPath5557" d="M70.73 98.03c0 6.9 4.93 12.5 11.02 12.5s11.02-5.6 11.02-12.5-4.93-12.5-11.02-12.5-11.02 5.59-11.02 12.5zm1.2.17s3.31-3.76 8-4.69c4.69-.93 7.55.87 9.25 2.12 1.7 1.25 3.12 3.92 3.12 3.92s-3.76.77-9.09.84c-5.34.06-11.28-2.19-11.28-2.19z" fill="#ebaa82" stroke-width="none" opacity="1" stroke="none"></path><path id="SvgjsPath5558" d="M91.56 97.86s-2.08-4.66-7.97-5.44c-5.89-.79-14.54 3.87-15.21 5.61-.67 1.74 14.43 3.48 18.3 2.53 0 0-11.56-.39-14.54-2.3 0 0 2.3-4.27 8.93-4.83 6.61-.57 10.04 3.7 10.49 4.43z" fill="#ebaa82" stroke-width="none" opacity="1" stroke="none"></path><path id="SvgjsPath5559" d="M92.49 100.56c-2.99 2.4-6.96 3.48-10.76 3.36-.17-.01-.17-.25 0-.26 3.97-.16 7.22-1.31 10.68-3.21.07-.04.15.05.08.11z" fill="#dc9164" stroke-width="none" opacity="1" stroke="none"></path><path id="SvgjsPath5560" d="M71.75 98.72c6.44 2.32 13.78 2.6 20.43.97.13.06.34-.05.27-.21-3.52-8.75-15.59-8.02-20.9-1.51-.22.27-.14.63.2.75zm.88-.65c5.34-6.21 15.21-6.15 19.35 1.37-6.45 1.12-13.13.73-19.35-1.37z" fill="#587d90" stroke-width="none" opacity="1" stroke="none"></path></g></g></g><g id="svga-group-eyes-right-move" transform="matrix(1,0,0,1,0,0)"><g id="svga-group-eyes-right" transform="matrix(1,0,0,1,0,0)"><g id="svga-group-eyesback-right"><path id="SvgjsPath5550" d="M107.7 99.5s1.4-2.7 3.1-3.9c1.7-1.3 4.6-3.1 9.3-2.1 4.7.9 8 4.7 8 4.7s-5.9 2.2-11.3 2.2c-5.3-.1-9.1-.9-9.1-.9z" fill="#ffffff" stroke-width="none" opacity="1"></path></g><g id="svga-group-eyesiriswrapper-right" transform="matrix(1,0,0,1,0,0)"><g id="svga-group-eyesiriscontrol-right" transform="matrix(1,0,0,1,0,0)"><g id="svga-group-eyesiris-right" transform="matrix(1,0,0,1,0,0)"><path id="SvgjsPath5512" d="M118 91.3c2.8 0 5.1 2.3 5.1 5.1s-2.3 5.1-5.1 5.1-5.1-2.3-5.1-5.1 2.3-5.1 5.1-5.1z" fill="#9fae70" stroke-width="none" opacity="1"></path><path id="SvgjsPath5513" d="M122.4 93.6c.4.6.6 1.2.8 1.9.2.7.2 1.4.1 2.1s-.4 1.4-.8 2-.9 1.1-1.5 1.5-1.3.6-2 .7-1.4.1-2.1-.1c-1.3-.3-2.6-1.1-3.4-2.2-.4-.6-.7-1.2-.9-1.9-.2-.7-.2-1.4 0-2.1.1-.7.4-1.4.8-2s.9-1.1 1.5-1.5 1.3-.7 2-.8 1.4-.1 2.1.1c1.5.3 2.7 1.2 3.4 2.3zm-.1.1-.3-.4c-.1-.1-.2-.2-.3-.4-.1-.1-.2-.2-.4-.3-.1-.1-.3-.2-.4-.3-.6-.3-1.2-.6-1.8-.7-1.3-.2-2.6.1-3.6.8-1.1.7-1.8 1.8-2.1 3-.3 1.2-.1 2.6.6 3.7.3.6.8 1.1 1.3 1.4.5.4 1.2.7 1.8.8.7.1 1.3.1 1.9-.1s1.2-.4 1.8-.8c.5-.4 1-.8 1.3-1.3.4-.5.7-1.1.8-1.7.2-.6.2-1.3.2-1.9-.2-.6-.4-1.3-.8-1.8z" fill="#7c8f40" stroke-width="none" opacity="1"></path><path id="SvgjsPath5514" d="M118 94.6c1 0 1.8.8 1.8 1.8s-.8 1.8-1.8 1.8-1.8-.8-1.8-1.8.8-1.8 1.8-1.8z" fill="#000000" stroke-width="none" opacity="1"></path><path id="SvgjsPath5515" d="M118 98.4c-1.1 0-2-.9-2-2s.9-2 2-2 2 .9 2 2c0 1.2-.9 2-2 2zm0-3.6c-.9 0-1.7.7-1.7 1.7s.7 1.7 1.7 1.7c.9 0 1.7-.7 1.7-1.7s-.8-1.7-1.7-1.7z" fill="#7c8f40" stroke-width="none" opacity="1"></path><path id="SvgjsPath5516" d="M115.6 92.6c.4-.2 1.1.2 1.6 1.1.5.8.5 1.7.1 1.9-.4.2-1.1-.2-1.6-1.1-.4-.8-.5-1.7-.1-1.9zm3.6 4.8c.3 0 .6.3.6.6s-.3.6-.6.6-.6-.3-.6-.6.3-.6.6-.6z" fill="#ffffff" stroke-width="none" opacity="1"></path></g></g></g><g id="svga-group-eyesfront-right"><path id="SvgjsPath5561" d="M118.26 85.53c-6.08 0-11.02 5.6-11.02 12.5s4.93 12.5 11.02 12.5 11.02-5.6 11.02-12.5-4.94-12.5-11.02-12.5zm-1.47 14.85c-5.33-.06-9.09-.84-9.09-.84s1.41-2.67 3.12-3.92c1.7-1.25 4.56-3.05 9.25-2.12 4.69.93 8 4.69 8 4.69s-5.94 2.26-11.28 2.19z" fill="#ebaa82" stroke-width="none" opacity="1" stroke="none"></path><path id="SvgjsPath5564" d="M108.44 97.86s2.08-4.66 7.97-5.44c5.89-.79 14.54 3.87 15.21 5.61.67 1.74-14.43 3.48-18.3 2.53 0 0 11.56-.39 14.54-2.3 0 0-2.3-4.27-8.93-4.83-6.61-.57-10.04 3.7-10.49 4.43z" fill="#e39d72" stroke-width="none" opacity="1" stroke="none"></path><path id="SvgjsPath5565" d="M107.51 100.56c2.99 2.4 6.96 3.48 10.76 3.36.17-.01.17-.25 0-.26-3.97-.16-7.22-1.31-10.68-3.21-.07-.04-.15.05-.08.11z" fill="#dc9164" stroke-width="none" opacity="1" stroke="none"></path><path id="SvgjsPath5566" d="M128.45 97.96c-5.31-6.51-17.38-7.23-20.9 1.51-.07.17.14.28.27.21 6.65 1.63 13.98 1.35 20.43-.97.34-.11.42-.47.2-.75zm-20.43 1.47c4.14-7.52 14.01-7.58 19.35-1.37-6.22 2.11-12.9 2.5-19.35 1.37z" fill="#587d90" stroke-width="none" opacity="1" stroke="none"></path></g></g></g><g id="svga-group-facehighlight-single"></g><g id="svga-group-eyebrows-left-move" transform="matrix(1,0,0,1,0,0)"><g id="svga-group-eyebrows-left-rotate" transform="matrix(1,0,0,1,0,0)"><g id="svga-group-eyebrows-left" transform="matrix(1,0,0,1,0,0)"><path id="SvgjsPath5610" d="m69.1 87.3.2-.2.3-.3v-.1c.1-.2.2-.4.4-.5.3-.4.7-.7 1-.9.7-.6 1.4-1.2 2.3-1.4h.2c1.6-1.3 4-2.5 5.7-1.4 1.7-.2 3.5-.1 5 .4.8-.1 1.5.2 2.3.5 1.3.4 2.6.8 3.7 1.4.1.1.2.2.2.3 1.5.4 3 2.1 1.5 3.5-.8.7-1.8.7-2.7.3-.2-.1-.4-.1-.6-.2-1.7-.1-3.2-1.3-4.8-1.9-1.2-.5-2.5-.7-3.7-1-.9.1-1.7.2-2.6.3-.3 0-.6.1-.9.1-1.1.4-2.1.6-3.2.8-.2.1-.4.2-.7.3-.2.2-.6.3-.8.4-.1.1-.3.1-.4.2l-.9.3c-.3.1-.6.2-.9.2-.1 0-.3 0-.4-.1-.1 0-.1.1-.2.1-.3.1-.6-.1-.6-.4.1-.5.3-.7.6-.7z" fill="#decfbc" stroke-width="none" opacity="1"></path><path id="SvgjsPath5611" d="M88.3 87.9c.6-.2 1.3-.2 1.8-.6.6-.4 1-1 1.1-1.6.1-.2.4-.1.4.1-.2 1.4-1.7 3.2-3.3 2.5-.2 0-.2-.4 0-.4zm.5.9c1.4-.2 2.5-.7 3.3-1.9.1-.2.4-.1.3.2-.6 1.4-2.1 2.6-3.7 2.1-.1-.1-.1-.4.1-.4zm-3.7-6.3c-.1-.2.1-.5.3-.3 1.5 1.1 2.3 3.8.7 5.1-.2.1-.4 0-.3-.2.4-.7.7-1.8.5-2.6-.2-.8-.9-1.3-1.2-2zm-4.9-.2c1.9.1 3.2 2 3.5 3.8 0 .2-.2.3-.3.1-.4-.8-.7-1.7-1.4-2.3-.6-.6-1.3-.9-2-1.2-.1-.2 0-.5.2-.4zM72.4 84c2.6-1.7 6.2-.6 8.4 1.3.1.1 0 .2-.1.1-2.8-1.5-5.1-2.1-8.2-1.1-.2.1-.3-.2-.1-.3zm-3.6 3.7c1.8-2 5.2-2.7 7.8-1.9.1 0 .1.3 0 .2-1.2-.1-2.6 0-3.8.2-1.4.3-2.4 1.2-3.7 1.8-.3.1-.4-.2-.3-.3z" fill="#ede8e1" stroke-width="none" opacity="1"></path><path id="SvgjsPath5612" d="M92.9 87.5c0-.3 0-.5-.1-.7 0-.5-.2-1-.7-1.3-.6-.8-1.6-1.3-2.5-1.7-2.5-1.2-5.4-2-8.2-2.2-4.8-.4-10 1.2-12.8 5.3-.1 0-.2 0-.3.1-.4.5-.4 1.1.2 1.6.9.8 2.3 0 3.2-.3 3.6-1.4 7.3-2.7 11.2-1.5 1.8.6 3.4 1.6 5.2 2.3 1 .4 2.2.6 3.2.1.6-.3 1-.8 1.2-1.4.3-.1.4-.1.4-.3zm-17-4.6s.1 0 0 0c2.2.5 3.8 1 5.5 2.4.1.1.3 0 .2-.2-1-1.3-2.6-2.3-4.2-2.6.9-.2 1.8-.2 2.7-.2v.1c.6.5 1.1.9 1.6 1.5.4.6.6 1.2.8 1.8-.6-.2-1.1-.3-1.7-.3-1.8-.2-3.7.1-5.4.6-1 .3-2 .7-2.9 1-.4.2-2.9 1.5-3.5.5.1 0 .1 0 .2-.1 1.7-2.2 4.1-3.7 6.7-4.5zm9.5.1c-.1.6.1 1.1.1 1.7 0 .7-.3 1.2-.5 1.8v.2c-.7-.3-1.4-.6-2.1-.8 0-1.3-.9-2.8-2.1-3.5 1.6 0 3.1.2 4.6.6zm6.9 3.6c.2 1-.9 1.9-1.9 2.1-.6.1-1.4-.2-1.9-.4-.3-.1-.6-.3-.9-.4.4-.2.9-.5 1.2-.8.7-.6 1.1-1.3 1.2-2.2 0-.2-.2-.2-.2-.1-.3.7-.7 1.3-1.3 1.8-.5.4-1.1.6-1.6.9-.4-.2-.8-.4-1.3-.6-.1 0-.1 0-.2-.1 0 0 .1 0 .1-.1.8-.6 1.2-2.8.4-3.6.6.2 1.2.3 1.7.5 1.1.4 2.4.8 3.3 1.5-.1.6-.4 1.2-.9 1.7-.5.4-1 .6-1.6.8-.2.1-.2.3 0 .4.7.2 1.6-.2 2.1-.8.5-.5.8-1.2.8-1.9.3.4.7.8 1 1.3z" fill="#cfb89a" stroke-width="none" opacity="1"></path></g></g></g><g id="svga-group-eyebrows-right-move" transform="matrix(1,0,0,1,0,0)"><g id="svga-group-eyebrows-right-rotate" transform="matrix(1,0,0,1,0,0)"><g id="svga-group-eyebrows-right" transform="matrix(1,0,0,1,0,0)"><path id="SvgjsPath5613" d="m130.9 87.3-.2-.2-.3-.3v-.1c-.1-.2-.2-.4-.4-.5-.3-.4-.7-.7-1-.9-.7-.6-1.4-1.2-2.3-1.4h-.2c-1.6-1.3-4-2.5-5.7-1.4-1.7-.2-3.5-.1-5 .4-.8-.1-1.5.2-2.3.5-1.3.4-2.6.8-3.7 1.4-.1.1-.2.2-.2.3-1.5.4-3 2.1-1.5 3.5.8.7 1.8.7 2.7.3.2-.1.4-.1.6-.2 1.7-.1 3.2-1.3 4.8-1.9 1.2-.5 2.5-.7 3.7-1 .9.1 1.7.2 2.6.3.3 0 .6.1.9.1 1.1.4 2.1.6 3.2.8.2.1.4.2.7.3.2.2.6.3.8.4.1.1.3.1.4.2l.9.3c.3.1.6.2.9.2.1 0 .3 0 .4-.1.1 0 .1.1.2.1.3.1.6-.1.6-.4-.1-.5-.3-.7-.6-.7z" fill="#decfbc" stroke-width="none" opacity="1"></path><path id="SvgjsPath5614" d="M111.7 87.9c-.6-.2-1.3-.2-1.8-.6-.6-.4-1-1-1.1-1.6-.1-.2-.4-.1-.4.1.2 1.4 1.7 3.2 3.3 2.5.2 0 .2-.4 0-.4zm-.5.9c-1.4-.2-2.5-.7-3.3-1.9-.1-.2-.4-.1-.3.2.6 1.4 2.1 2.6 3.7 2.1.1-.1.1-.4-.1-.4zm3.7-6.3c.1-.2-.1-.5-.3-.3-1.5 1.1-2.3 3.8-.7 5.1.2.1.4 0 .3-.2-.4-.7-.7-1.8-.5-2.6.2-.8.9-1.3 1.2-2zm4.9-.2c-1.9.1-3.2 2-3.5 3.8 0 .2.2.3.3.1.4-.8.7-1.7 1.4-2.3.6-.6 1.3-.9 2-1.2.1-.2 0-.5-.2-.4zm7.8 1.7c-2.6-1.7-6.2-.6-8.4 1.3-.1.1 0 .2.1.1 2.8-1.5 5.1-2.1 8.2-1.1.2.1.3-.2.1-.3zm3.6 3.7c-1.9-2-5.2-2.7-7.8-1.9-.1 0-.1.3 0 .2 1.2-.1 2.6 0 3.8.2 1.4.3 2.5 1.2 3.7 1.8.3.1.4-.2.3-.3z" fill="#ede8e1" stroke-width="none" opacity="1"></path><path id="SvgjsPath5615" d="M107.3 87.7c.2.6.6 1.1 1.2 1.4 1 .5 2.2.3 3.2-.1 1.8-.7 3.4-1.7 5.2-2.3 3.9-1.2 7.6.1 11.2 1.5.9.4 2.3 1.1 3.2.3.6-.5.6-1.1.2-1.6-.1-.1-.2-.1-.3-.1-2.8-4.1-8.1-5.7-12.8-5.3-2.8.2-5.6 1-8.2 2.2-.9.4-1.8 1-2.5 1.7-.4.3-.7.8-.7 1.3-.1.2-.1.5-.1.7.2.3.3.3.4.3zm23.6-.2c0 .1.1.1.1.1-.5.9-3.1-.4-3.5-.5-1-.4-1.9-.7-2.9-1-1.8-.5-3.6-.8-5.4-.6-.6.1-1.1.2-1.7.3.2-.6.4-1.3.8-1.8.4-.6 1-1.1 1.6-1.5v-.1c.9 0 1.8.1 2.7.2-1.7.2-3.3 1.3-4.2 2.6-.1.1.1.2.2.2 1.6-1.4 3.3-1.9 5.4-2.3 0 0 .1 0 .1-.1 2.6.7 5 2.2 6.8 4.5zm-11.7-5.2c-1.2.7-2.1 2.2-2.1 3.5-.7.2-1.4.5-2.1.8v-.2c-.1-.6-.4-1.2-.5-1.8 0-.5.2-1.1.1-1.6v-.1c1.5-.3 3-.5 4.6-.6zm-10.4 3c0 .7.3 1.4.8 1.9s1.3 1 2.1.8c.2-.1.2-.3 0-.4-.6-.2-1.1-.4-1.6-.8s-.8-1-.9-1.7c1-.7 2.2-1.1 3.3-1.5.6-.2 1.1-.3 1.7-.5-.8.8-.5 3 .4 3.6 0 0 .1 0 .1.1-.1 0-.1 0-.2.1-.4.2-.9.4-1.3.6-.5-.3-1.1-.4-1.6-.9-.6-.5-1-1.1-1.3-1.8-.1-.2-.3-.1-.2.1.1.9.5 1.6 1.2 2.2.3.3.7.6 1.2.8-.3.2-.6.3-.9.4-.5.2-1.3.6-1.9.4-1.1-.2-2.1-1.1-1.9-2.1.2-.5.6-.9 1-1.3z" fill="#cfb89a" stroke-width="none" opacity="1"></path></g></g></g><g id="svga-group-nose-single-move" transform="matrix(1,0,0,1,0,0)"><g id="svga-group-nose-single" transform="matrix(1,0,0,1,0,0)"><path id="SvgjsPath5601" d="M104.93 107.57c-.14-.18-.45.05-.32.25.84 1.29 1.76 2.56 2.54 3.89.53.9 1.07 2.03.7 3.12-.61 1.79-2.18 1.68-3.45 1 .48-.61.75-1.33.69-2.12-.02-.19-.29-.37-.44-.18-1.26 1.59-2.06 3.25-4.41 3.34-2.48.1-4.08-1.91-4.73-4.07-.06-.19-.32-.14-.33.04-.07.99.25 1.95.79 2.76-.36.07-.73.14-1.09.16-1.15.07-1.34-.02-2.11-.98-.8-1.01-.81-1.27-.36-2.39.21-.53.52-.98.82-1.45.97-1.52 1.84-3.06 2.48-4.75 1.29-3.37 1.85-7.09 1.22-10.66-.03-.15-.26-.11-.27.04-.01 2.89-.19 5.74-1.04 8.52-.88 2.88-2.54 5.04-3.92 7.64-.72 1.35-1.02 3.12.21 4.28 1.22 1.15 3.1.78 4.52.24.85.92 2.02 1.56 3.26 1.67 1.4.12 3.23-.55 4.36-1.7 1.31 1.45 3.82.78 4.47-1.08 1.01-2.82-2.06-5.64-3.59-7.57z" fill="#bd6630" stroke-width="none" opacity="1" transform="translate(0 2)" stroke="none"></path><path id="SvgjsPath5602" d="M102 110.13c-.8-.75-2.07-.97-2.97-.27-.33.25-.52.57-.61.9-.16.05-.3.14-.44.27-.68.67-.39 1.71.19 2.34.5.53 1.31.78 2.02.75.88-.05 1.67-.46 2.16-1.2.57-.86.4-2.09-.35-2.79z" fill="#f3b792" stroke-width="none" opacity="1" transform="translate(0 2)" stroke="none"></path></g></g><g id="svga-group-hair-front" transform="matrix(1,0,0,1,0,0)"><path id="SvgjsPath5651" d="M96.3 39.2s-1.9-1.7-6.2-2.7c-4.3-1-14.5-.3-25.3 9.8s-16.2 22.4-19.3 32c-3.1 9.6-4.3 32-4.1 33.7s6 9.1 9.6 11.3c0 0-.5-10.8.2-14.8 0 0 1.2 12.6 1.9 16 0 0 8.4 4.4 14.9 5.4 0 0-3.1-17.9-3.8-33.9s1.4-31.4 5.1-38.8c0 0-2.5 14.6-3.2 22.5 0 0 25.2 4.3 49.4 2.4 0 0 1.4-9.1 1.4-13.1 0 0 .7 7.9.7 12.6 0 0 9.1 1 17.3-.7 0 0 3.8 30.3-5.5 48.8 0 0 9.6-1.5 13.7-3.7 0 0 1.4-4.7 1.9-7.1 0 0 .2 3.4-.5 6.2 0 0 4.8-2.7 8.1-5.4 0 0-.1-10.9-.5-15.9 0 0 2.4 7.5 2.2 14.4 0 0 1.9-2.5 3.6-4.4 0 0-1.8-20.4-8.5-40.9s-21.7-31.3-30.6-34.5-18.9-2.7-22.5.8z" fill="#decfbc" stroke-width="none" opacity="1" stroke="none"></path><path id="SvgjsPath5652" d="M91.2 39.9c-18.8.6-23.4 23.5-23.6 38.3 0 .4.6.5.7.1 2.1-15.3 4.3-34.8 23-37.8.4 0 .3-.6-.1-.6zM89 41.1c-12.8 6-16.7 20.6-16.1 33.7 0 .3.4.3.4 0 .2-13.2 3.3-26.7 15.8-33.4.3-.1.1-.4-.1-.3zm5.4.1c-5.6 8.9-7.9 20.7-4.9 30.9.1.3.7.3.6-.1-1.2-10.9-.1-20.6 4.8-30.5.2-.4-.3-.7-.5-.3zm-1-1.8C78 35.9 65.6 50.2 61.6 63.5c-2.8 9-3 18.6-2.9 28 .1 10.2.2 20.6 2.4 30.6.1.3.6.2.5-.1-2.4-16.8-4-35.5-.8-52.3 3-15.9 14.4-31.9 32.4-29.7.4 0 .5-.5.2-.6zm6 2.6c-.1-.2-.3 0-.3.2 2.8 5.6 5 11.5 6.2 17.6 1.2 6.3.8 12.3.7 18.6 0 .3.5.4.5.1 2.8-12.1-.9-26.1-7.1-36.5zm3.4-3.2c-.3 0-.4.4-.1.4 18.5 4 21 24.6 22.9 39.9 0 .3.5.3.5 0 .2-14.8-5.7-37.9-23.3-40.3zM140 74.5c-3.2-16-15.4-29.2-30-35.8-.2-.1-.3.2-.2.3 13.9 8.5 26.1 19.9 29 36.7 2.7 15.5 2 32.7-4 47.3-.1.4.4.6.6.3 4.1-6.8 5.5-14.7 5.9-22.6.6-8.6.4-17.8-1.3-26.2zM80.5 38.7c-12.8 4.3-21.3 16.6-26 28.7-5.8 15-9.7 33.6-7.5 49.6 0 .3.5.2.5-.1-.9-27.7 5.2-64.9 33.1-78 .1-.1.1-.3-.1-.2z" fill="#cfb89a" stroke-width="none" opacity="1" stroke="none"></path><path id="SvgjsPath5653" d="M109.9 51.7c-2.1-5.3-5.1-10.4-10.8-12.1-.2 0-.3.2-.1.3 13.1 5.6 14.4 25.9 14.2 38 0 .3.4.3.4 0 .9-8.9-.4-18-3.7-26.2zm22.6 16.6c-.1-.2-.4-.1-.4.2 1 3.9 1.9 7.6 2.6 11.5.1.3.6.2.6-.1-.1-3.9-1-8.1-2.8-11.6zM99 44.8c-.1-.2-.3-.1-.3.1 2.2 9.6 2.8 18.8 3 28.6 0 .3.4.3.5 0 1-9.5-.5-19.6-3.2-28.7zm-.2 6.2c0-.2-.3-.1-.3 0 .8 7.2 1.1 14.3 1.3 21.6 0 .3.5.3.5 0 .5-7.2-.2-14.5-1.5-21.6zm-2.7-2.9c0-.2-.3-.2-.3 0 .8 10.2.7 20.5 1 30.7 0 .3.4.3.5 0 .5-10.3-.3-20.5-1.2-30.7zm-1.9 6.8c-.4 6.3-.6 12.6-.4 18.9 0 .3.4.3.5 0 .3-6.3.3-12.6.3-18.9 0-.3-.4-.3-.4 0zm-4.8-9.4c-5.3 8.7-6.4 19.2-6.6 29.1 0 .4.7.4.7 0 .9-10.1 1.3-19.8 6.4-28.9.1-.2-.3-.5-.5-.2zM84 50.3c-3.1 6.2-4.8 13-4.1 20 0 .3.4.3.4 0 .2-6.9 1.2-13.3 4.1-19.7.3-.4-.2-.7-.4-.3zm-2.1-.5c-3.2 5.7-5.5 11.8-6.2 18.3 0 .3.5.4.5.1 1.2-6.4 2.9-12.4 6-18.2.2-.2-.2-.5-.3-.2zm26.4-6.6c-.1-.1-.3 0-.2.1 4.7 7.3 7.1 15.4 7.7 24 0 .2.3.2.3 0-.1-8.9-2.9-16.9-7.8-24.1zm15 10.5c-.1-.1-.3 0-.2.2 4.4 5.7 5.2 12.6 6.4 19.5 0 .2.4.2.4-.1-.7-7-2-14.1-6.6-19.6zm-1-4c-.1-.1-.3.1-.2.2 5.1 5.5 8.3 11.6 10.7 18.6.1.3.5.2.4-.1-1.7-7.2-5.8-13.5-10.9-18.7zm-.9-8.1c-.2-.1-.4.2-.2.4 19.9 13.3 24.9 35.8 27.1 58.2 0 .3.4.3.4 0-.4-22-7.5-46.7-27.3-58.6zm25.7 29.8c-.1-.2-.3-.1-.3.1 2 8.2 3.1 16.4 3.7 24.8 0 .3.4.3.4 0 0-8.5-1.4-16.9-3.8-24.9zm1.2 31.9c0-.2-.3-.2-.3 0-.3 6.2-.7 12.4-1.3 18.6 0 .2.2.2.3 0 1-6.1 1.5-12.4 1.3-18.6zM57.5 70.8c0-.2-.3-.3-.3-.1-3 13.1-3.8 26.9-2.2 40.2 0 .2.4.2.4 0-.7-13.5-.1-26.7 2.1-40.1z" fill="#ede8e1" stroke-width="none" opacity="1" stroke="none"></path></g><g id="svga-group-glasses-single-move" transform="matrix(1,0,0,1,0,0)"><g id="svga-group-glasses-single" transform="matrix(1,0,0,1,0,0)"></g></g></g></g></g><rect id="svga-credit-rect" width="200" height="15" x="0" y="185" fill="#ecf0f1" opacity="0.5" style="display: none;"></rect><text id="svga-credit-text" font-family="Avenir Next, Roboto, Helvetica, Arial, sans-serif" font-size="10px" text-anchor="start" font-weight="400" size="10px" anchor="start" weight="400" fill="#333333" x="33.298973083496094" y="182.60824728012085" style="display: none;"><tspan id="SvgjsTspan5009" dy="13" x="33.298973083496094">Created on AvatarMaker.com</tspan></text></g></svg>