<svg xmlns="http://www.w3.org/2000/svg" version="1.1" width="600px" height="600px" viewBox="0 0 200 200" style="overflow:hidden!important;"><defs id="SvgjsDefs10596"></defs><g id="svga-group-wrapper"><g id="svga-group-backs-single"><path id="SvgjsPath11279" d="M0 0h200v200H0V0z" fill="#5e8c6a" stroke-width="none" opacity="1"></path><path id="SvgjsPath11280" d="m156.3 131.2-16.8-.4-17 .6c-.7 0-8.8-.3-9.4-.2-9.8 1.2-14.9.6-20.8 0l-10.9-.1c-1.5 0-3.5-1.6-3.5-3.6l.1-5.6c1-5.5-.2-9.4-.2-14.7l.2-3.6c0-1.5 2.3-2.3 5.1-2.4l7.5.2c3.7-.1 9.6.8 12 .3l11-.5c3.8-.2 10.8-.8 20.5-.5 0 0 10.3 0 19.3.2l5.6-.1c1.5 0 3.2 1.2 3.2 2.7v5c-.1 3.3.1 5.9.1 10.1l.2 5.5-.4 3.4c-.1 2.5-3.8 4.1-5.8 3.7zm-43.4-33.4-16.8-.4-17 .6c-.7 0-8.8-.3-9.4-.2-9.8 1.2-14.9.6-20.8 0L38 97.7c-1.5 0-3.5-1.6-3.5-3.6v-5.6c1-5.5-.2-9.4-.2-14.7l.2-3.6c0-1.5 2.3-2.3 5.1-2.4l7.5.2c3.7-.1 9.6.8 12 .3l11-.5c3.8-.2 10.8-.8 20.5-.5 0 0 10.3 0 19.3.2l5.6-.1c1.5 0 3.2 1.2 3.2 2.7v5c-.1 3.3.1 5.9.1 10.1l.2 5.5-.4 3.4c0 2.5-3.6 4.1-5.7 3.7zm43.4-32.4-16.8-.4-17 .6c-.7 0-8.8-.3-9.4-.2-9.8 1.2-14.9.6-20.8 0l-10.9-.1c-1.5 0-3.5-1.6-3.5-3.6l.1-5.6c1-5.5-.2-9.4-.2-14.7l.2-3.6c0-1.5 2.3-2.3 5.1-2.4l7.5.2c3.7-.1 9.6.8 12 .3l11-.5c3.8-.2 10.8-.8 20.5-.5 0 0 10.3 0 19.3.2l5.6-.1c1.5 0 3.2 1.2 3.2 2.7v5c-.1 3.3.1 5.9.1 10.1l.2 5.5-.3 3.4c-.2 2.5-3.9 4.1-5.9 3.7zm-43.4-33.3-16.8-.4-17 .6c-.7 0-8.8-.3-9.4-.2-9.8 1.2-14.9.6-20.8 0L38 32c-1.5 0-3.5-1.6-3.5-3.6v-5.6c1-5.5-.2-9.4-.2-14.7l.2-3.6c0-1.5 2.3-2.3 5.1-2.4l7.5.2c3.7-.1 9.6.8 12 .3l11-.5c3.8-.2 10.8-.8 20.5-.5 0 0 10.3 0 19.3.2l5.6-.1c1.5 0 3.2 1.2 3.2 2.7v5c-.1 3.3.1 5.9.1 10.1l.2 5.5-.4 3.4c0 2.5-3.6 4-5.7 3.7zm43.4 166.2-16.8-.4-17 .6c-.7 0-8.8-.3-9.4-.2-9.8 1.2-14.9.6-20.8 0l-10.9-.1c-1.5 0-3.5-1.6-3.5-3.6l.1-5.6c1-5.5-.2-9.4-.2-14.7l.2-3.6c0-1.5 2.3-2.3 5.1-2.4l7.5.2c3.7-.1 9.6.8 12 .3l11-.5c3.8-.2 10.8-.8 20.5-.5 0 0 10.3 0 19.3.2l5.6-.1c1.5 0 3.2 1.2 3.2 2.7v5c-.1 3.3.1 5.9.1 10.1l.2 5.5-.4 3.4c-.1 2.5-3.8 4.1-5.8 3.7zM112.9 165l-16.8-.4-17 .6c-.7 0-8.8-.3-9.4-.2-9.8 1.2-14.9.6-20.8 0l-10.9-.1c-1.5 0-3.5-1.6-3.5-3.6v-5.6c1-5.5-.2-9.4-.2-14.7l.2-3.6c0-1.5 2.3-2.3 5.1-2.4l7.5.2c3.7-.1 9.6.8 12 .3l11-.4c3.8-.2 10.8-.8 20.5-.5 0 0 10.3 0 19.3.2l5.6-.1c1.5 0 3.2 1.2 3.2 2.7v5c-.1 3.3.1 5.9.1 10.1l.2 5.5-.4 3.4c0 2.4-3.6 4-5.7 3.6zM25.7 97.8c2.1.4 5.7-1.2 5.7-3.7l.4-3.4-.2-5.5c.1-4.2-.1-6.8-.1-10.1v-5c0-1.5-1.8-2.7-3.2-2.7l-5.6.1c-9-.2-19.3-.2-19.3-.2H.1v30.5l8.8-.3 16.8.3zm5.8 39.5c0-1.5-1.8-2.7-3.2-2.7l-5.6.1c-9-.2-19.3-.2-19.3-.2-1.2 0-2.2-.1-3.3-.1v30.5l8.8-.3 16.8.4c2.1.4 5.7-1.2 5.7-3.7l.4-3.4-.2-5.5c.1-4.2-.1-6.8-.1-10.1v-5zM14.9 35.9c-2.4.4-8.3-.4-12-.3L0 35.5v29.9l4.6.1c5.9.6 11 1.2 20.8 0 .7-.1 8.8.2 9.5.2l17-.6 16.8.4c2.1.4 5.7-1.2 5.7-3.7l.4-3.4-.2-5.5c.1-4.2-.1-6.8-.1-10.1v-5c0-1.5-1.8-2.7-3.2-2.7l-5.6.1c-9-.2-19.3-.2-19.3-.2-9.7-.3-16.7.3-20.5.5l-11 .4zm59.6 72.6v-5c0-1.5-1.8-2.7-3.2-2.7l-5.6.1c-9-.2-19.3-.2-19.3-.2-9.7-.3-16.7.3-20.5.5l-11 .5c-2.4.4-8.3-.4-12-.3l-2.9-.1v29.9l4.6.1c5.9.6 11 1.2 20.8 0 .7-.1 8.8.2 9.5.2l17-.6 16.8.4c2.1.4 5.7-1.2 5.7-3.7l.4-3.4-.2-5.5c0-4.2-.2-6.8-.1-10.2zm0 67.2v-5c0-1.5-1.8-2.7-3.2-2.7l-5.6.1c-9-.2-19.3-.2-19.3-.2-9.7-.3-16.7.3-20.5.5l-11 .5c-2.4.4-8.3-.4-12-.3l-2.9-.2v29.9l4.6.1c5.9.6 11 1.2 20.8 0 .7-.1 8.8.2 9.5.2l17-.6 16.8.4c2.1.4 5.7-1.2 5.7-3.7l.4-3.4-.2-5.5c0-4.2-.2-6.8-.1-10.1zM0 32l8.8-.3 16.8.4c2.1.4 5.7-1.2 5.7-3.7l.4-3.4-.2-5.5c.1-4.2-.1-6.8-.1-10.1v-5c0-1.5-1.8-2.7-3.2-2.7l-5.6.1c-9-.2-19.3-.2-19.3-.2-1.1 0-2.2-.1-3.3-.1V32zm169.4 33.3 10.9.1c5.7.6 10.4.6 19.7-.5V35.4l-9-.4c-2.4.4-7.8-.1-11.5 0l-8.4.4c-2.8 0-5.1.9-5.1 2.4l-.2 3.6c0 5.3-1 10.2.2 14.7l-.1 5.6c0 2 2 3.6 3.5 3.6zm0 65.8 10.9.1c5.7.6 10.4.5 19.7-.6v-29.5l-9.1-.4c-2.4.4-7.8-.1-11.5 0l-8.4.4c-2.8.1-5.1.9-5.1 2.4l-.2 3.6c0 5.3-1 10.2.2 14.7l-.1 5.6c.1 2 2.1 3.7 3.6 3.7zM122.1 22.7l-.1 5.6c0 2 2 3.6 3.5 3.6l10.9.1c5.9.6 11 1.2 20.8 0 .7-.1 8.8.2 9.4.2l17-.6 16.4.4V1.8h-2.6c-9-.2-19.3-.2-19.3-.2-9.7-.3-16.7.3-20.5.5l-11 .5c-2.4.4-8.3-.4-12-.3l-7.5-.3c-2.8 0-5.1.9-5.1 2.4l-.1 3.6c0 5.4 1.2 9.2.2 14.7zm0 65.8-.1 5.6c0 2 2 3.6 3.5 3.6l10.9.1c5.9.6 11 1.2 20.8 0 .7-.1 8.8.2 9.4.2l17-.6 16.4.3V67.5l-2.6.1c-9-.2-19.3-.2-19.3-.2-9.7-.3-16.7.3-20.5.5l-11 .5c-2.4.4-8.3-.4-12-.3l-7.5-.2c-2.8.1-5.1.9-5.1 2.4l-.2 3.6c.1 5.2 1.3 9.1.3 14.6zm77.9 79.8-9.1-.4c-2.4.4-7.8-.1-11.5 0l-8.4.4c-2.8.1-5.1.9-5.1 2.4l-.2 3.6c0 5.3-1 10.2.2 14.7l-.1 5.6c0 2 2 3.6 3.5 3.6l10.9.1c5.7.6 10.4.5 19.7-.6l.1-29.4zm-16.4-3.7 16.4.4v-30.3l-2.6.1c-9-.2-19.3-.2-19.3-.2-9.7-.3-16.7.3-20.5.5l-11 .5c-2.4.4-8.3-.4-12-.3l-7.5-.2c-2.8.1-5.1.9-5.1 2.4l-.2 3.6c0 5.3 1.2 9.2.2 14.7l-.1 5.6c0 2 2 3.6 3.5 3.6l10.9.1c5.9.6 11 1.2 20.8 0 .7-.1 8.8.2 9.4.2l17.1-.7z" fill="#477d55" stroke-width="none" opacity="1"></path><path id="SvgjsPath11281" d="M34.5 22.7v5.6c0 2 2 3.6 3.5 3.6l10.9.1c5.9.6 11 1.2 20.8 0 .7-.1 8.8.2 9.4.2l17-.6 16.8.4c1.3.2 3.3-.3 4.5-1.4-.8 0-1.7-.3-2.6-.3-1.4 0-6.2-1.1-9.3-1.6-1.3-1.2-2.9-2-4.7-1.7-1.3.2-2.3.8-3.8 1-2.1.3-4.2-.1-6.3-.5-2.2-.4-4.2-.8-6.4-.8-.1 0-.1.1 0 .1 4.1.2 7.9 1.8 11.9 1.9 1.4 0 2.7-.5 4-.5.9 0 1.6.1 2.3.3-6.4 0-22.2.9-24.5 1.6-2.7.7-12.6.7-15.9-.7-3.4-1.5-20.3 0-21.7-.2-1.5-.2-1.7-2.7-1-7 .2-1.2.2-2.6.1-4.2.5.2.9.3 1.4.3 1.4 0 3-.9 4.2-1.5 2.2-1.1 4.4-2.2 6.5-3.5.1-.1 0-.2-.1-.2-2.5 1.3-5 2.4-7.7 3.2-1.3.4-2.7 1.1-4.1.5-.1 0-.2-.1-.3-.1-.3-4.1-1.2-8.7-1.5-10.9-.1-.7-.1-1.4 0-2 3.9-1.4 8.2 1 12.1 1.5 3.2.4 6.3.1 9.5-.4.2 0 .1-.3 0-.3-2.5.2-5 .4-7.6.1-2.7-.3-5.2-1.3-7.8-1.8-2-.4-3.9-.7-5.7 0 .1-.3.2-.6.3-.8-2.4.2-4.2 1-4.2 2.3L34.3 8c0 5.4 1.2 9.2.2 14.7zm71.2 39.6c-1.9-1-8.3.3-10.8 1-2.3.6-8.8-.6-11.6-1.8 2.3-.1 4.6-.5 6.4-1.7.1-.1.1-.4-.1-.4-2.6.3-4.9 1.1-7.5 1.3-1.5-1.7-1.2-7.2-.9-9.9.3-2.9-1.3-7.3-1.6-10.5-.2-1.8-.1-3.3.1-4.4-1.1.4-1.8 1-1.8 1.8l-.2 3.6c0 5.3 1.2 9.2.2 14.7l-.1 5.6c0 2 2 3.6 3.5 3.6l10.9.1c5.9.6 11 1.2 20.8 0 .7-.1 8.8.2 9.4.2l17-.6 16.8.4c1.5.3 3.8-.5 5-1.9h-.5c-2.2 0-3.5-1-5.4-1.6-.6-.2-2.2-.1-4.1.2-1.7-1.6-4.1-2.3-6.4-2-1.9.2-3.5 1.3-5.4 1.4-2 0-3.4-.7-5.4-.3-.1 0-.1.2 0 .2 2.5 0 4.9 1 7.3.4 3.4-.8 5.6-.9 8.6.4-3.7.6-8.1 1.4-9.6 1.2-2.6-.3-4.1.3-7 .3s-19.8-.3-22-.6c-2.1-.1-3.7.2-5.6-.7zm-1.2 33c-.4-.1-1.3-.1-2.5-.2.1-.5-.1-1.1-.5-1.4-.5-.4-1.6-.7-1.9.1-.1.2 0 .5.3.5s.7-.1 1-.1c.4.1.6.5.5.9-7.1-.1-22.9.5-25.5.5-3.1 0-16.7-.3-24.6.6s-12.5-2.3-13-3.4c-.1-.2-.2-.4-.2-.8 1.4-.4 2.9-.3 4.4-.2 2.1.1 4.2-.5 6.2-.3.8.1 1.4.6 2.2.4 1-.2 2-1.2 2.7-1.8 0 0 0-.1-.1-.1-1.3 1.1-1.8 1.5-3.4 1.2-.3-.1-.5-.5-.8-.5-2.2-.3-4.4.2-6.7-.1-1.7-.2-3.3-.3-4.7.2-.2-2.1-.2-5.2-.2-7.2 0-.4 0-.9-.1-1.4 2.9.4 5.8-2.4 8.7-2 .1 0 .1-.1 0-.2-1.7-.5-3.3.1-4.8.6 0-.1-.1-.2-.2-.2-1.4-.1-2.7 0-4-.3-.4-2.6-1.1-5.6-1.1-7.7 0-1.7-.6-2.8-1.3-3.5-.3.3-.5.7-.5 1.1l-.2 3.6c0 5.3 1.2 9.2.2 14.7v5.6c0 2 2 3.6 3.5 3.6l10.9.1c5.9.6 11 1.2 20.8 0 .7-.1 8.8.2 9.4.2l17-.6 16.8.4c1.6.3 4.1-.6 5.2-2.1-1.1.3-2.7.7-3.7.7-1.5.2-7.2-.4-9.8-.9zm13.8 34.8c-4.4-.3-7.3-.3-10.8-3.2-.1-.1-.3-.2-.4-.3 1-.2 2.1-.2 3.2.1 1 .3 1.9.8 3 .9 2.8.3 5.6-.5 8-1.7.4-.2.1-.8-.3-.7-1.8.4-3.5 1-5.4 1.2-2.2.3-3.5-.5-5.4-1.1.6.1 1.1.3 1.7.5.2.1.6-.2.3-.4-2.6-2.4-7.8-.6-10.8.1-5.4-.1-12.3 1.2-13.9 1.6-2.3.6-3.5.3-6.7-1.2s-.6-4.1 0-9.4c.1-.6.1-1 .1-1.4 3 2.9 7.2 4 11.3 3.1 2-.5 3.4-1.4 5.6-1.4 1.9 0 3.6.8 5.4 1.3 2.5.8 4.3 1.2 6.9.7.1 0 .1-.2 0-.2-4.6.5-8.4-2.5-12.9-2.6-1.8 0-3.4.7-5.2 1-4.2.8-7.8-.6-11-3.1-.1-2.4-1-2.3-1.9-5.1-.5-1.4-.9-2.9-1.2-4.2l-.1 2.4c0 5.3 1.2 9.2.2 14.7l-.1 5.6c0 2 2 3.6 3.5 3.6l10.9.1c5.9.6 11 1.2 20.8 0 .7-.1 8.8.2 9.4.2l17-.6 16.8.4c1.1.2 2.6-.2 3.8-.9-2-1.1-5.4-2.9-7.8-3.5-3.5-.9-6.7.6-11.4.9-4.7.5-18.2 2.9-22.6 2.6zm-14.1-4.4c1.1-.2 2.1-.4 3.2-.5-.6.2-1.1.5-1.7.8l-1.5-.3zm12.9 38.2c-.7-.1-1.4-.1-2-.1-1.5 0-3.5 0-6.5-.6-3.1-.6-9.4-.9-13.3-1.1s-16.3 1.5-18.5 1.3-6.1-.9-11.3-1.5c-5.2-.6-17.4.9-19.6 1.3-1.4.3-4-.3-5.8-1.7 1.2.1 2.4.1 3.6 0 .3 0 .4-.4.1-.5-1.4-.5-3.1-.5-4.6-.4-.4-.5-.7-1.1-.9-1.8-.6-3-.1-4.5 0-7.8 1.7 1.6 4.2 1.6 6.8 1.5 3.5-.1 5.9 1.2 8.9 2.3 2.9 1.1 5.7-.4 8.6.6.2.1.3-.3.1-.4-1.2-.4-1.6-.4-2.9-.4-2 0-3.6.6-5.6-.4-1.1-.5-2-1.6-3.1-2.2-3.8-1.9-10.2 1.4-12.9-2.9-.2-3.5-1.1-6.1-1.9-9.1-.4-1.6-.7-3.1-.6-4.3-.7.4-1.2.9-1.2 1.6l-.2 3.6c0 5.3 1.2 9.2.2 14.7v5.6c0 2 2 3.6 3.5 3.6l10.9.1c5.9.6 11 1.2 20.8 0 .7-.1 8.8.2 9.4.2l17-.6 16.8.4c1.2.3 2.9-.1 4.2-1zm39 32.9c-2.3-.2-9.7.5-14.4 0s-11.7-1.3-16.4-1.6-17.8.7-17.8.7-2.5-.4-6.5-.9-17.1.7-18.9-2c-1.1-1.6-.9-3-.6-4.7l1.2.6c1.1.4 2.2.4 3.3.5 1.7.2 3.2.7 4.8 1.2.2.1.4-.3.2-.4-1.3-1-2.5-1.5-4.2-1.8-1.7-.3-3.8-.2-5.2-1.2.2-.9.3-1.8.4-3 .1-1.1 0-2.1-.2-3.2.8.1 1.7.3 2.5.2.3 0 .3-.4.1-.5-.8-.2-1.8-.3-2.7-.4-.5-2.6-1.4-5.2-2.2-8.4-.3-1.3-.5-2.2-.6-2.9-.7.4-1.2.9-1.2 1.6l-.2 3.6c0 5.3 1.2 9.2.2 14.7l-.1 5.6c0 2 2 3.6 3.5 3.6l10.9.1c5.9.6 11 1.2 20.8 0 .7-.1 8.8.2 9.4.2l17-.6 16.8.4c1.4.2 3.6-.4 4.8-1.6-1.1 0-3 .4-4.7.2zm42.1-166.6c-1.7-1-7.7-.2-11.1 0s-16.7-.2-18.8 0-11.1-.7-14-1.2c-2.9-.5-14.2.2-17.6.7s-10.3-.7-10.5-2.7c-.2-1.9-.2-3.6.2-7.7.1-.5.1-1 .1-1.4.9.6 2.5.5 3.3.4 1-.1 1.9-.4 2.9-.6 3.3-.7 5.1-.1 8.2.6 5.6 1.4 11.2 1.5 17 1 .1 0 .1-.2 0-.2-6.5.2-12.2-.1-18.5-2.1-4.5-1.4-8.4.5-12.9-.4-.2-2.6-.9-4.5-1.3-7.2-.3-2.6 0-5.4.6-7.3-2.2.2-3.8 1-3.8 2.3l-.1 3.6c0 5.3 1.2 9.2.2 14.7l-.1 5.6c0 2 2 3.6 3.5 3.6l10.9.1c5.9.6 11 1.2 20.8 0 .7-.1 8.8.2 9.4.2l17-.6 16.4.3v-1.3c-.6.1-1.3-.1-1.8-.4zm-10.6 32.1c-1.9-.8-9.5-.2-13.2-.5.5-.1.9-.2 1.4-.3 1.2-.3 2.7-.7 3.5-1.6.1-.2.1-.5-.2-.5-1.2.1-2.2.8-3.3 1-1.3.3-2.6.4-3.8.7-1.7-.9-2.7-2.9-3.8-5.6-.9-2.1-.3-3.4.1-5 1.8-.1 3.7.6 5.5.5 2.7 0 5.2-.6 7.8.5.1 0 .1-.1.1-.1-2.4-1.3-4.8-.8-7.4-1-2.1-.1-3.9-.9-5.8-.8.1-.6.1-1.2.1-1.9-.3-3.2-1-8.6-.3-10.5.2-.6.2-1.2 0-1.7-1.4.4-2.3 1.1-2.3 2l-.2 3.6c0 5.3-1 10.2.2 14.7l-.1 5.6c0 2 2 3.6 3.5 3.6l10.9.1c5.7.9 10.4.9 19.7-.2v-2.8c-1.7 0-2.6.9-4.1 1.1-2 .3-6.1 0-8.3-.9zm7.6 32.4c0-.8-21.2.3-24.4 0s-4.5-.3-6.5-.8-26.9.8-30.6 1.4-7.7-1.4-8.5-3.1c-.8-1.5.3-5.4.3-8.7.3.2.6.4.9.5.6.2 1.3.3 2 .2 1.8-.2 3.4-1.3 5.2-1.4.1 0 .2-.2 0-.2-1.8-.2-3.4.3-5.1.6-1.2.2-2-.4-3-.8v-.1c-.3-3.4-1.1-7.1-2-9.9-.4-1.3-.7-2.4-1.1-3.2-.2.3-.4.6-.4 1l-.2 3.6c0 5.3 1.2 9.2.2 14.7l-.1 5.6c0 2 2 3.6 3.5 3.6l10.9.1c5.9.6 11 1.2 20.8 0 .7-.1 8.8.2 9.4.2l17-.6 16.3.3V96h-.3c-1.8.4-4.3-.4-4.3-1.3zm.2 32.3c-.8-.5-2.1-.2-2.7.5-.2.2-.1.3.1.4-6.8.5-14.9 1.5-16.2 1.3-2.1-.3-6.4-2.9-6.4-6.4v-.6c1.1.2 2.2.8 3.2.9.6.1 1.2.1 1.8-.1 1-.3 2-1.4 3.3-.8.2.1.4-.1.3-.3-1.1-1.9-3.4.1-4.9.1-1.4.1-2.6-.5-3.9-.6-.4-2.2-1.8-2.7-2.8-5.7-1.2-3.5.3-5 .3-9.1 0-2.2-.5-3.4-1.1-4.2-.3.3-.6.7-.6 1.1l-.2 3.6c0 5.3-1 10.2.2 14.7l-.1 5.6c0 2 2 3.6 3.5 3.6l10.9.1c5.7.6 10.4.5 19.7-.6v-3.1c-1 0-2.4 0-3.9.1 0-.1-.2-.3-.5-.5zm-2.1.9c.5-.1.9-.4 1.4-.4.2 0 .4.1.6.2-.7.1-1.3.1-2 .2zm-9.2 34.7c-.6-.2-2.6-.3-5-.4 0-.8 0-1.5-.1-2.2 0-.1-.2-.3-.3-.3-2.5-.5-5.9 0-7.9 1.6-.2.1 0 .4.2.3 1.5-.4 2.9-1 4.4-1.2.6-.1 1.5-.2 2.1 0 .5-.1.8.1 1 .7.1.4.1.7.2 1.1-5.7-.2-13.9-.1-15.4.2-.4.1-1.3.2-2.4.2-.8-.1-1.7-.1-2.4.1h-.1c-4.5.2-10.5.4-11.7.2-1.7-.2-2.6-.9-6.1-1.7s-12 .4-13.9 0-1.5-2.8-1.5-5.9c0-2.2.4-3.3.9-5 .6.5 1.4.8 2.1.9s1.7 0 2.5-.4c.4.1.8.2 1.2.2 1.9.1 3.9-.4 5.8-.3 2.7.1 5.3.6 8 .9.3 0 .4-.5.1-.5-3.3-1-6.8-1.7-10.2-1.5-2.8.1-3.9.7-6.7-1.1-.7-.4-1.3-1-2-1.5.2-2.9-1.5-4.5-2.1-6.6-.5-1.8-1.1-3.2-.8-5-1.1.4-1.9 1-1.9 1.9l-.2 3.6c0 5.3 1.2 9.2.2 14.7l-.1 5.6c0 2 2 3.6 3.5 3.6l10.9.1c5.9.6 11 1.2 20.8 0 .7-.1 8.8.2 9.4.2l17-.6 16.4.5v-1c-.7-.1-1.3-.3-1.8-.5-1.7-.9-12-.2-14.1-.9zm-57.5-14.4c.9.9 2 1.9 3.1 2.4-.5.1-1-.1-1.5-.2-.8-.2-1.3-.6-1.9-1.1.1-.2.2-.6.3-1.1zm66.4 47c-.7-.1-1.5-.1-2.2-.3-.9-.2-1.7-.6-2.4-1.2-.3-.3-.8.2-.5.5.2.2.5.4.8.6-3.2 0-6.9 1.2-9.5 1.3-1.5.1-3.3-.5-4.8-1.5.3-.1.6-.1.8-.2.3-.1.3-.6-.1-.6-.6 0-1.2 0-1.8.1-1.3-1.1-2.2-2.4-2.6-3.8-.7-3.4-1.4-2-2.5-6.1s-.5-4.3.2-9.4c.5-3.6-.4-4.3-1.4-5.4-.7.4-1.2.9-1.2 1.6l-.2 3.6c0 5.3-1 10.2.2 14.7l-.1 5.6c0 2 2 3.6 3.5 3.6l10.9.1c5.7.6 10.4.5 19.7-.6v-1.6c-2.6-.2-5-.4-6.8-.7.2-.2.2-.3 0-.3zM25.7 97.8c1 .2 2.3-.1 3.5-.7-1.7-.2-4-.7-6.2-1 0-.1-.1-.2-.2-.2-1.1-.6-1.7-.6-3-.6-2.6 0-4.3-1.3-6.5-2-3.1-1-6.4-.2-9.6-.1-.4 0-.5.6-.1.7 3.5.6 7-.7 10.3.9.5.3 1 .6 1.6.9-3.7.1-10 .3-15.5.5v1.6l8.8-.3 16.9.3zm-.3 33.4c.7-.1 8.8.2 9.4.2l17-.6 16.8.4c1.1.2 2.7-.2 3.9-1-1.5-.4-3.3-.9-3.9-1.1-.7-.2-4.4-1-7.7-1.2-1.2-1-2.6-1.4-4.5-1.4-4 .2-7.4-1.6-11.5-1.3-.3 0-.3.4 0 .4 1.8.2 3.6.2 5.3.7 1 .3 2.3 1 3.4 1.2 1.1.2 2.2-.1 3.3 0 .5 0 1.1.1 1.6.2-1 .1-1.9.3-2.5.7-2.6 1.8-4.7.3-8.8.3s-15.2-.6-15.2-.6-11.4.3-15.8.9c-1.1.1-2.8.2-4.8.3.3-.3.5-.6.8-.8 2.5-2.3 4.5-2.4 7.8-2.2 4.9.3 9-1.6 13.9-2.1.1 0 .1-.2 0-.2-2.7.2-5.2.6-7.8 1.3-3.2.9-6.2-.1-9.5-.1-4.3 0-3.9 1.6-6.2 4.1-3.4.1-7.3 0-10.5-.2v1.8l4.6.1c6 .8 11.1 1.4 20.9.2zm.3 33.8c1.2.2 2.9-.2 4.1-1.1-1.5-.2-4.2.3-5.5-.2-1.7-.6-5.2-.6-8.3-.2-2 .3-9.6-.1-16-.7v2.1l8.8-.3 16.9.4zm22.8 30.8c-.6-.1-1.5-.1-2.6-.2-.3-1.5-.9-3.2-2.2-3.6-.5-.2-.9.1-1.4.1-1 .1-1.9 0-2.8-.2-1.3-.3-2.5-.7-3.9-.6-.2 0-.2.3 0 .3 1.9.4 3.6 1.4 5.5 1.6.5.1 1.1-.1 1.5-.1 1.5.3 2.1 1.2 2.4 2.4-5.8-.4-15.4-.8-19.5-.8-5.1 0-20.8.3-25.4.3v3.2l4.6.1c5.9.6 11 1.2 20.8 0 .7-.1 8.8.2 9.5.2l17-.6 16.8.4c1.1.2 2.7-.2 3.9-.9-2-.1-4.8-.2-6.1-.2-2.2 0-14.3-1-18.1-1.4zM25.7 32.1c1.3.2 3.2-.3 4.5-1.3-1.4-.3-3.4-.6-4.8-.9-3.4-5.6-12.7-4-18.1-5.5-.1 0-.1.1-.1.1 2.5 1 5.1.9 7.7 1.5 2.8.6 7 1.3 9.1 3.6-2.3-.1-6.6.6-9.5-.3-2.1-.6-9.5-.6-14.5-.8V32l8.8-.3 16.9.4zm-.3 33.3c.7-.1 8.8.2 9.4.2l17-.6 16.8.4c.9.2 2 0 3.1-.5-2-.1-4.3-.6-5.9-.8-2.5-.3-7.3-1.3-10.8-1.9-.4-.1-1-.1-1.8-.1 1.1-.3 2.2-.2 3.4-.3.4 0 .5-.5.1-.7-1-.4-2.1-.3-3.1-.1-.5.1-1 .3-1.5.5-.3.2-.7.4-1 .6-6.5.3-17.9 1.7-19.9 2-2.5.3-18.5-.3-21.7-1.3-1.3-.4-3.7-.5-6.3-.7 4.4-1.9 9.8-.1 14.5-.3 4.2-.2 8.4-.8 12.4-2.2.2 0 .1-.3-.1-.2-6.9 1.7-13 1.8-20.1 1-3.2-.4-5.4-.3-8 1.6-.6.1-1.3 0-1.9 0v3.4l4.6.1c5.9.5 11 1.1 20.8-.1zM155.5 29c3.6-.9 6.7-1.5 10.4-.8 2.3.5 4.3 1 6.6.6.1 0 .1-.2 0-.2-3.4.4-6.6-1.2-9.9-1.4-2.5-.1-5 .2-7.3 1.4-.1.2 0 .5.2.4zM55.2 12c.9-.5 1.8-.7 2.8-.8.1 0 0-.1 0-.1-1 0-2 .3-2.9.8-.1 0 0 .1.1.1zm5.5-.8c1-.1 1.9-.1 2.9-.3.1 0 .1-.1 0-.1-1 0-1.9.2-2.9.3-.2-.1-.2.1 0 .1zm31.1 39.5c.5 0 .5-.8 0-.8-.9 0-2 .2-2.6.9-.2.2 0 .5.3.4.8 0 1.5-.4 2.3-.5zm-6.8 5c-.2 0-.3 0-.4.1-.2.1-.2.4 0 .5.1.1.2.1.4.1.4 0 .4-.6 0-.7zm36 1.7c.1 0 .1-.1.2-.1.1-.1.1-.2 0-.3-.1 0-.1-.1-.2-.1-.6-.5-.6.9 0 .5zm8.9 1.4c.1-.2-.1-.3-.3-.2-.2.1-.3.3-.6.1-.3-.2-.6.3-.3.5.5.1 1.1.1 1.2-.4zm26-6.9c.2-.1.2-.4 0-.5-.2-.1-.3-.1-.5-.1-.6-.1-.6.8 0 .7.2 0 .3 0 .5-.1zm28.2 7.5c.2-.1.2-.3 0-.4-.4-.1-.7-.1-1.1-.1-.4 0-.4.6 0 .6s.8 0 1.1-.1zm6.8.2c.1 0 .1-.2 0-.2-.7-.2-1.4-.1-2.1-.1-.3 0-.3.5 0 .5.7-.1 1.4 0 2.1-.2zM22.2 24c2.6.9 4.7-1.3 6.9-2.2.2-.1.1-.3-.1-.3-2.3.6-4.2 2.9-6.7 2.1-.3-.1-.4.3-.1.4zm5.8-8.4c.3 0 .3-.5 0-.5-.4-.1-.4.5 0 .5zm14.1 43.8c.2 0 .2-.4 0-.4-.3 0-.3.4 0 .4zm11.8-.5c.4-.2.9-.4 1.3-.6.1-.1 0-.2-.1-.2-.5.1-.9.3-1.3.5-.1.1-.1.4.1.3zm-14.8-9.5c-7-.4-14.1-.5-21.1-1.3-5.1-.5-7.7-1.6-12.3 1.1-.1.1 0 .2.1.2 4.7-2.6 10.4-.5 15.6-.4 5.9.1 11.8.4 17.7.6.2 0 .2-.2 0-.2zm15.3-5.2c-.6-.1-1.2-.1-1.9-.2-.4 0-.4.6 0 .6.6 0 1.3 0 1.9-.2.1 0 .1-.2 0-.2zm8.1 2.9c.2 0 .2-.3 0-.3s-.2.3 0 .3zM45 51.5c.2 0 .2-.2 0-.2s-.2.2 0 .2zm-17.6 1.4c.2 0 .2-.4 0-.4s-.2.4 0 .4zm28 29.3c.2 0 .2-.2 0-.2-1.1-.4-2.2-.6-3.4-.9-.3-.1-.4.4-.1.4 1.2.3 2.3.6 3.5.7zm18.7-.1c.2-.1.1-.4-.1-.4-.9-.1-1.8.2-2.6.4-.2.1-.2.5.1.4.8 0 1.7 0 2.6-.4zm11.4 1.6c.2 0 .2-.3 0-.3s-.3 0-.5-.1c-.3 0-.3.5 0 .5.2 0 .3-.1.5-.1zm20.9 6.9c-.3 0-.3.5 0 .5s.3-.5 0-.5zm-13.1 2.3c.3 0 .3-.5 0-.5-.5 0-1.1 0-1.6.1-.2 0-.2.3 0 .3.6.2 1.1.1 1.6.1zm44.6-10.4c-.3-.1-.4.4-.1.4.5.1.9.2 1.4.2.2 0 .2-.3.1-.4-.6 0-1-.1-1.4-.2zm-8.7 11.3c-.3 0-.3.5 0 .5.7 0 1.4.1 2.1-.1.2 0 .2-.3 0-.3-.7-.2-1.4-.2-2.1-.1zm22.9-3.2c-2.3-.1-4.5.1-6.6 1.1-.3.2-.1.8.2.6 4.9-2.1 10.3.2 15.3-.4.4 0 .5-.6.1-.7-2.8-.6-6-.5-9-.6zm20.5 2.7c1.2.1 2.4.4 3.6.6.2 0 .3-.2.1-.3-1.1-.6-2.5-.8-3.8-.8-.3-.1-.3.5.1.5zm20.9-6.7c.2 0 .2-.3 0-.3-1.2-.1-2.4-.3-3.6-.3-.2 0-.2.3 0 .3 1.1.2 2.4.2 3.6.3zm-9.4-.5H183c-.1 0-.1.1 0 .1h1.1c.1.1.1-.1 0-.1zm-10 0c-5.1.5-10.1 0-15.1-.5-.3 0-.3.4-.1.5 5 1.1 10.2 1 15.2.5.3-.1.3-.5 0-.5zm-157.2 3c-.2.1 0 .4.2.3.8-.4 1.6-.5 2.5-.5.1 0 .2-.2 0-.2-.9-.4-1.9-.1-2.7.4zm6.6-10.5c-.1 0-.1.2 0 .2 1.4-.1 2.8-.2 4.2-.1.2 0 .2-.3 0-.3-1.4-.1-2.9-.1-4.2.2zm-18 36.5c-.2 0-.2.3 0 .3 1.1 0 2.3 0 3.4-.1.1 0 .1-.2 0-.2-1.1-.1-2.3 0-3.4 0zm5.4 1.2c.3.9.8 1.9 1.6 2.4.1.1.1-.1.1-.1-.6-.7-1.2-1.4-1.5-2.4 0-.2-.3-.1-.2.1zm3.8 2c-.2.1 0 .4.2.3 3.7-1.7 6.9-2.4 10.9-2.6.2 0 .2-.3 0-.3-3.6-.5-7.9.6-11.1 2.6zm99.6.4c.1 0 .1-.1 0-.2h-.5c-.1 0-.1.2 0 .2h.5zm11.6 6.8c1-.3 2-.2 3.1-.2.2 0 .3-.3.1-.3-1-.5-2.3-.3-3.3.1-.4 0-.3.5.1.4zm8.8.9c.3 0 .3-.4 0-.4s-.3.4 0 .4zm3.6.2c.2 0 .2-.3 0-.3s-.2.3 0 .3zm2.6-13.8c3.1.3 5.9 1.8 9 .9.3-.1.3-.6-.1-.6-2.9.3-5.5-.6-8.3-.8-3-.2-5.9 1.2-8.9.5-.4-.1-.6.4-.3.6 3 1.9 5.5-.9 8.6-.6zm-15.7.5c-2.7.6-5.3.8-8 1-.2 0-.2.3 0 .3 2.7 0 5.5-.4 8.1-1 .2 0 .1-.4-.1-.3zm54.4 5.2c.2 0 .2-.3 0-.3s-.2.3 0 .3zm.6-3.8c-.3 0-.5.1-.8.1-.2 0-.2.3 0 .3.3 0 .5.1.8.1.3 0 .3-.5 0-.5zm-6.8 9.7c.4 0 .4-.6 0-.6s-.4.6 0 .6zm-1.9-5.2c-.2 0-.2.3 0 .3s.2-.3 0-.3zm11.6 4.2c.2 0 .2-.3 0-.3-.2-.1-.4-.1-.6-.1-.3 0-.3.5 0 .5.2 0 .4 0 .6-.1zm4.6 0c-.2 0-.2.3 0 .3s.2-.3 0-.3zm8.2 1.7c-.4 0-.4.6 0 .6.3 0 .3-.6 0-.6zM158.6 150c.6.1 1.3.2 1.9.2.2 0 .2-.3 0-.3-.6-.2-1.2-.3-1.9-.3-.2-.1-.2.4 0 .4zm7.7 1.1c.1-.1 0-.2-.1-.2-.5.2-1 .3-1.5.2-.2 0-.2.3 0 .3.6.1 1.2 0 1.6-.3zm3.9-.1c-.3 0-.3.5 0 .5s.3-.5 0-.5zm-103.7 2.1c.2-.1.3-.2.5-.4.1-.1 0-.3-.2-.3-.2.1-.4.1-.6.2-.2.1 0 .7.3.5zm8.5-1.9c-.4 0-.4.6 0 .6s.4-.6 0-.6zm26.7 37.5c-.3 0-.3.6 0 .5 1-.1 2.2-.1 3.2-.4.2-.1.2-.3-.1-.4-1 0-2.1.2-3.1.3zm18.5 5.3c-.2.1-.2.4 0 .4.2.1.4.1.6.1.3 0 .3-.6 0-.5-.2-.1-.4-.1-.6 0zm6.1-.2c.2 0 .2-.3 0-.3-.5-.1-1-.1-1.6-.1-.3 0-.3.4 0 .4.5.1 1.1.1 1.6 0zm8.6-.2c-.3 0-.3.5 0 .5s.3-.5 0-.5zm46.7 1.6c.8-.2 1.8-.2 2.4-.7.1-.1 0-.2-.1-.2-.8-.2-1.7.2-2.5.4-.4 0-.2.6.2.5zm-161.5-5.3c-.1 0-.1.2 0 .2 3-.8 6.1-.4 8.8 1.1.2.1.4-.2.2-.3-2.8-1.7-5.9-2.1-9-1zm-15-5.2c-.4-.1-.6.6-.2.6 2.9.7 6.1.8 8.9-.5.3-.1.1-.6-.2-.5-3 .5-5.6.9-8.5.4zm25.5-7.2c-.5 0-1.1.1-1.6.2-.2.1-.1.4.1.4l1.5-.3c.2 0 .2-.3 0-.3zm13 1.4c-.2.1-.1.4.1.4 1.8-.4 3.5-.9 5.2-1.7.1-.1 0-.2-.1-.2-1.7.4-3.4 1-5.2 1.5zm11.1-1.9c-.9-.1-1.8-.1-2.7-.1-.3 0-.3.4 0 .4.9 0 1.8.1 2.7-.1.1.1.1-.1 0-.2zm4.9-.3h.3c.1 0 .1-.1 0-.1h-.3c-.1 0-.1.1 0 .1zm4.2 5.7c.3 0 .3-.4 0-.4-.3-.1-.3.4 0 .4zm-10 6.6c.1 0 .1-.1 0 0 0-.1 0 0 0 0zm-24.3-8.7c.3 0 .3-.5 0-.5s-.3.5 0 .5zm-13.3-24.6c.3 0 .3-.5 0-.5s-.3.5 0 .5zm1.8-.5c.3 0 .3-.5 0-.5s-.3.5 0 .5zm-7.6 3.4c.3 0 .3-.5 0-.5s-.3.5 0 .5zm10.4-9.7c.1 0 .1-.1.2-.1.1-.1.1-.2 0-.3-.1-.1-.1-.1-.2-.1-.6-.3-.6.8 0 .5z" fill="#346d43" stroke-width="none" opacity="1"></path><path id="SvgjsPath11282" d="M65.5 71.8c-3.3-1.8-5.6-.7-9.1-.7-4.1 0-8-.9-12.2-.2-.2 0-.2.4 0 .4 2-.2 3.9-.4 5.9-.2 1.9.2 3.7 1.1 5.5 1.3 3.4.3 6.2-1.4 9.7-.4.2 0 .3-.2.2-.2zm21.3-1.4c-5.7.6-11.2 1.2-16.9 1.2-.2 0-.2.2 0 .2 5.6.1 11.4-.2 16.9-1.3.1 0 .1-.1 0-.1zm12.6-1.2c-1.6-.6-3.3-.4-4.8.2-.1 0 0 .1 0 .1 1.6-.6 3.1-.5 4.8-.1 0 0 .1-.1 0-.2zm14.3 1.3c-1.4-.9-3.1-.8-4.7-.7-.2 0-.2.4 0 .4 1.2 0 2.5 0 3.6.4 1.3.5 1.8 1.4 2.2 2.6.1.2.3.2.4 0 .2-1.1-.6-2.1-1.5-2.7zm3.2 7.7c0-.2-.3-.2-.3 0v1.2c0 .1.2.1.3 0 .1-.4 0-.8 0-1.2zm-8.3 24.7c-5.5-.5-11.1-.2-16.6-.1-3.7.1-8.1-.6-11.5.9-.2.1-.1.5.2.4 4.1-1.7 9.9-.5 14.3-.5 4.6 0 9.2.2 13.7-.2.2.1.2-.5-.1-.5zm50.3 1.4c-6.2-1.2-12.6-1.3-18.9-1.6-7.2-.3-14.4-.7-21.6.1-.2 0-.2.4 0 .3 6.9-.6 13.7-.7 20.6-.2 6.6.5 13.1 1.8 19.8 1.7.2.1.3-.2.1-.3zm1.3 2.8s0 .1 0 0c.1.1.1 0 0 0zm.2 0c0-.1-.1-.1-.1 0 .1 4-.3 8.1-.2 12.1 0 .1.1.1.2 0 .5-3.9.3-8.1.1-12.1zm35.6-4c-2.5 0-5.1.3-7.6.1-1.9-.2-3.8-1-5.7-1.1-3.9-.2-7.3.5-11.2-.2-.4-.1-.5.5-.2.6 4.4 1.3 9.1 1 13.6 1.3 3.6.2 7.4-.1 11-.3.3-.1.3-.4.1-.4zm-36-33.2c-6.2.2-12.5.6-18.7.1-4.8-.4-10.2-2.5-14.9-.8-.2.1-.1.4.1.3 4.9-1.5 11.5 1.3 16.7 1.6 5.6.3 11.3-.2 16.8-.9.1 0 .2-.3 0-.3zm31.7-32.4c-3.1-2-7.1-.2-10.6-.6-3.8-.4-7.1-1-11 0-.3.1-.2.5.1.5 3.8-.6 7.1 0 10.8.5 3.4.4 7.4-1.2 10.6 0 .2 0 .3-.3.1-.4zm-76.6-.3c-11 1.4-21.9-.6-32.9 0-.3 0-.3.5 0 .5 11 .2 22.2 2.4 33-.2.1 0 .1-.3-.1-.3zm40.1-.3c-7.5.5-14.8-1.3-22.4-.2-.2 0-.1.3 0 .3 5.1-.6 9.4-.2 14.4.5 2.4.3 11.8-.5 11.9 2.8 0 .3.4.4.5.1.8-3.1-1.8-3.6-4.4-3.5zM115 5.1c-3.9-2.9-9.1 1-13.3 0-.2 0-.3.2-.1.3 2.8 1.2 5 .4 7.9-.1 3.1-.5 5.8.2 6.7 3.6.6 2.2.5 4.8.7 7 0 .3.5.3.5 0-.2-3.3.6-8.6-2.4-10.8zm-21.7-.9c-3.8 0-7.7-.1-11.5-.2-.2 0-.2.2 0 .2 3.9.3 7.7.2 11.6.1.1.1.1-.1-.1-.1zm-35.6 23c-2.4-.5-4.8-.6-7.2-.5-1.6.1-10.7 2.2-9.6-1.8.1-.2-.3-.4-.4-.2-1 1.9.5 3.5 2.4 3.8 1.5.2 3-.4 4.5-.6 3.4-.6 6.8-.6 10.3-.5.1.2.1-.1 0-.2zm2.8.4c-.4 0-.4.6 0 .6s.4-.6 0-.6zm7.3 1.4c-2-.5-4.1-.8-6.1-1-.1 0-.2.2 0 .2 2 .5 4 1 6.1 1.1.1.1.2-.2 0-.3zm63.5-.8c-1.1-.2-2.4-.1-3.2-.9-1-1-.6-2.4-.3-3.5.3-1.3.6-2.6-.1-3.9-.1-.2-.5 0-.4.2 1 2.2-1.2 4.5-.4 6.7.6 1.7 2.7 2.2 4.3 2 .3 0 .5-.5.1-.6zm13-8.5c-2.5-.4-5.1-1.4-7.6-1.6-2.8-.2-7.1 2.3-9.5.5-.2-.1-.4.2-.2.3 1.6 1.4 3.2.8 5 .3 4.5-1.3 7.9.5 12.3.7.1.1.1-.1 0-.2zM126.6 3.6c0-.2-.3-.4-.4-.1-.5 2.6-.5 5.1.3 7.6.1.2.3.1.3-.1-.4-2.5-.6-4.9-.2-7.4zm-96.9.9c-2.5-2-5.2-1.5-8.2-1.3-4.8.5-9.4.3-14.1-.2-.1 0-.2.2 0 .3 3.4.7 6.7 1.1 10.2 1.1 4.1 0 7.9-.9 11.9.6.2 0 .4-.3.2-.5zm.5 6.1c-.1-1.5.1-3.1-1-4.2-.1-.2-.4.1-.2.2 1.2 1.6.8 4.7.9 6.6.1 1.8.1 3.6.3 5.3 0 .1.2.1.2 0 .2-2.6-.1-5.3-.2-7.9zm.3 14.7c0-.2-.4-.2-.4 0 .1 1 0 1.9-.1 2.9 0 .1.2.1.2 0 .4-.9.4-1.9.3-2.9zm42.9 16.2c-.1-2.2-1-4.1-3.4-3.6-.2 0-.1.3 0 .3 3.9 1.1 2 9.4 2.2 12.2.2 2.7.7 5.1 1.7 7.5.1.1.2 0 .2-.1-2.1-5.5-.5-10.7-.7-16.3zm-4.7-3.8c-2.1.1-4.2 0-6.3-.1-.2 0-.2.3 0 .3 2.1.4 4.2.3 6.3 0 .2 0 .2-.2 0-.2zm-35.4-1.3c-3.4-.8-6.8-.3-10.3 0-4.2.3-8.4.6-12.5 1.2-.2 0-.2.3 0 .3 7.3-.2 15.5-2.6 22.7-1.1.3 0 .4-.4.1-.4zM17.7 46.7c-2.9 1.2-5.8-1.1-8.7-.3-.1 0-.1.2.1.2 2.9-.8 6 1.9 8.8.3.1-.1 0-.3-.2-.2zm6.9 22.8c-6.8.3-12.3 1.3-18.9-1.2-.2-.1-.4.3-.2.4 2.8 1.2 5.7 2 8.8 2.3 2.7.2 13.1-1.7 14.4 1.7.1.2.5.2.5-.1 0-2.7-2.2-3.2-4.6-3.1zm5.9 9.9c0-.3-.4-.3-.4 0 0 1-.1 2.1 0 3.1 0 .2.3.2.3 0 .2-1 .1-2.1.1-3.1zM53.4 104c-6.5-1.7-13.3-1.4-19.9-1.4-.2 0-.2.2 0 .2 6.7 0 13.2.4 19.8 1.5.2.1.3-.2.1-.3zm.8 24.2c-7.7.5-15.5-1.1-23.2-1.3-.2 0-.2.3 0 .3 7.3 1 16 2.8 23.3 1.3.1-.1.1-.3-.1-.3zm18.1-19.3c.2-2.2 1.1-4.8-1.7-5.3-.3-.1-.5.3-.2.5 2.3 1.5.9 8.9 1.2 11.5.3 3.4.9 6.7 1.6 10.1 0 .1.2.1.2 0-.8-5.6-1.6-11.2-1.1-16.8zm33.3 8.2c-3.7-3.4-7.5-3.4-12-1.8-.3.1-.2.6.1.4 2.2-.7 4.4-1.5 6.7-1 1.8.4 3.3 1.7 5 2.5.2.2.3 0 .2-.1zm15.3 4.2c-.5-1-1.6-1.2-2.6-1-.7.2-1.4.6-2 .9-1.4.7-2.6 1.1-4.2 1.2-.3 0-.3.5 0 .5 1.2 0 2.3-.2 3.4-.7 1.7-.7 3.3-2.2 5-.6.3.2.5 0 .4-.3zm37.4 15.8c-5.6-.4-10.5 2.8-16 1.9-5.4-.9-10.6-1.9-16.1-2.4-.3 0-.3.4-.1.5 6 .9 12.1 2.9 18.1 3.4 1.3.1 2.4-.1 3.6-.4 3.6-1.1 6.5-2.1 10.4-2.3.5-.2.5-.7.1-.7zm30.4-1.4c-6.1 0-13.7-.4-19.6 1.5-.2.1-.1.4.1.4 6.1-1.9 13.2-1 19.5-1.6.2 0 .2-.3 0-.3zm-61.1 24.5c-.8 0-1.2-.3-1.2-.9 0-.3-.1-.5-.1-.8-.1-.4-.1-.9-.1-1.3-.1-.9-.1-1.8-.1-2.7 0-.2-.3-.2-.3 0-.1 1.2-.1 2.4 0 3.6.1.7 0 1.8.5 2.4.4.6 1.5.7 1.6-.2-.1-.1-.2-.2-.3-.1zm36.7-.8c-2.9.3-5.8 1-8.6 1.5-3.6.7-6.6.3-10.2-.2-.2 0-.4.3-.1.4 2.5.4 5.1 1.1 7.6.9 3.7-.3 7.7-1.2 11.3-2.2.3-.1.3-.4 0-.4zm-94.1-22.8c-5.6-.1-10.8 1.8-16.3.2-4.9-1.4-9.8-1-14.8-.6-.1 0-.1.2 0 .2 3.2-.1 6.5-.4 9.7-.2 3.1.2 5.3 1.9 8.2 2.4 3.9.7 9.5-.6 13.3-1.6.2 0 .1-.4-.1-.4zm45.6 0c-6.7-.7-13.4-.6-20.1-1-6.1-.3-11.6.9-17.6 1-.2 0-.2.3 0 .3 5.9-.1 11.6-1.2 17.6-.8 6.7.4 13.4 1.2 20.1 1.3.5 0 .5-.7 0-.8zm1.7 10c-.1-.2-.3-.3-.4-.5-.4-.8-.3-1.4-.1-2.3.4-1.8.5-3.2-.5-4.9-.2-.3-.6 0-.5.3.6 1.1.8 2.4.4 3.6-.2.7-.8 1.4-.9 2.1-.1 1.2 1.4 1.7 1.3 3 0 .3.3.3.5.1.4-.5.4-.8.2-1.4zm.2 4.5c0-.3-.4-.3-.4 0 0 1.1-.1 2.3.1 3.4 0 .2.3.2.3 0 .1-1.1 0-2.3 0-3.4zM61 153.5c-2.8-.3-2.3-.8-4.9-2.9-.2-.2-.5-.8-.8-1.1-3.4-2.8-13 2.4-15.5-1.7-.1-.2-.4 0-.3.2 2.5 4.9 10-.1 14.1 2 2.1 1.1 1 2.4 2.7 3.5 1.2.8 3.5.4 4.8.3.1 0 .1-.3-.1-.3zm10.1 1.6c-1.6-.1-3.2.1-4.8.2-.3 0-.3.4 0 .4 1.6-.1 3.3-.1 4.8-.4.2-.1.1-.2 0-.2zm21.3-8.7c-1.6-.2-3.2-.1-4.8-.1-.3 0-.3.4 0 .4 1.6 0 3.2.1 4.8-.1.2 0 .2-.2 0-.2zm-69.7-8.8c-3.3-1.1-6.2-.6-9.6-.4-4 .2-7.8-.3-11.6-1.6-.2-.1-.4.3-.2.4 7.1 3.1 13.8 1.5 21.3 2 .2 0 .3-.3.1-.4zm4.3-.1c-.2 0-.3.4-.1.4 1.4.2 2.3 1.4 2.5 2.8 0 .1.2.1.2 0 .4-1.6-1.1-3.1-2.6-3.2zm3.2 6.8c0-.2-.3-.2-.3 0-.1 1.5-.4 3.2-.1 4.6 0 .2.4.2.4 0 .4-1.4.1-3.1 0-4.6zM71.8 173c-.1-.4-.6-.3-.6.1-.3 4.4.1 8.9.2 13.3 0 1.7.7 4.8.1 6.4-1.2 3.1-4.3 2.6-6.8 2.8-.2 0-.2.3 0 .3 4-.1 7.5 1.2 7.8-3.1.3-6.4.4-13.6-.7-19.8zm-.8-3.6c-2.5-.7-5.3 0-7.8.2-2.8.3-5.5.6-8.3 1.1-.2.1-.2.4.1.4 5.3-.1 10.7-1.4 16-1.3.2.1.2-.3 0-.4zm-24.1.2c-5.4-.9-11-1.3-16.4-.8-6.1.6-11.8 2.4-18 2.3-.2 0-.2.2 0 .3 4.8.5 9.5-.5 14.3-1.2 6.8-1 13.2-1.1 20-.2.2 0 .3-.4.1-.4zm6.6 10.5c-1.9.2-3.7.6-5.6.9-.2.1-.1.4.1.4 1.8-.3 3.7-.6 5.5-1.1.2 0 .1-.2 0-.2zm39.2 9.6c-1.6-2.5-5-3.6-7.9-2.8-.3.1-.2.5.1.5 2.9-.4 5.3.5 7.4 2.5.3.1.5 0 .4-.2zm11.5 1.7c-1.4-.1-3 .3-4.4.5-.3 0-.2.6.1.5 1.4-.2 3-.2 4.4-.7.1 0 .1-.3-.1-.3zm7.2-.3c-.2.1-.5.1-.7.2-.2.1-.1.3.1.3.2-.1.5-.2.7-.3.1-.1 0-.3-.1-.2zm17.1-4c-1.3-.9-3-1-4.5-.7-.3.1-.2.6.1.5 1.5-.3 2.9-.1 4.3.4.1.1.2-.1.1-.2zm7.3 1.6c-.7 0-1.4 0-2.2-.1-.2 0-.2.3 0 .3.7 0 1.4 0 2.2-.1.2 0 .2-.1 0-.1zm8 .4c-.6.1-1 .2-1.6.1-.3-.1-.5.4-.1.5.6.1 1.3.1 1.9-.2.1-.2 0-.4-.2-.4zm5.1-8.1c-.3 0-.3.5 0 .5s.3-.5 0-.5zm-64.4-10.8c-1.1-.8-2.4-.9-3.8-.7-.3 0-.2.4.1.4 1.2-.2 2.4.1 3.6.5.1.1.2-.1.1-.2zm48-.1c-2.8-.9-5.2-.4-8.1.1-4.4.8-8.4.6-12.8.7-3.3.1-6.4 1.4-9.8 1.3-3.3-.1-6.2-.9-9.5-.3-.2 0-.1.3 0 .3 3.2-.2 6.2.6 9.4.8 3.2.2 5.8-.9 8.9-1.1 3.6-.3 7.1.4 10.7-.1 3.7-.6 7-1.6 10.9-1 .6.2.8-.5.3-.7zm25.4-.2c-3.6-.9-7-.3-10.6 0-3.2.3-6.3-.8-9.3.4-.2.1-.1.5.1.4 3.2-.8 6.5.2 9.8.1 3.3-.2 6.6-.1 9.9 0 .4-.1.5-.7.1-.9zm1 1.6c-.2-.2-.5.1-.4.3.4.5.6 1 .8 1.5.2.5.2 1 .3 1.6.1.2.4.2.4 0 .3-1.3-.3-2.6-1.1-3.4zm10.8-.5c-.5 2.7-.8 5.4-.2 8.1 0 .2.4.2.4-.1.1-2.7 0-5.3.4-7.9 0-.2-.5-.4-.6-.1zm.5 11.7c0-.3-.4-.3-.4 0-.1 1 .3 1.9.8 2.7.7 1.2 1.2 2 1.2 3.4 0 .2.2.2.3.1 1.3-2-1.9-4.2-1.9-6.2zm20-12.2c-3.4-.3-6.8 0-10.3-.6-.3-.1-.4.4-.1.5 3.4.6 7.1 1.4 10.5.8.4 0 .2-.6-.1-.7z" fill="#5e8c6a" stroke-width="none" opacity="1"></path></g><g id="svga-group-humanwrap-move" transform="matrix(1,0,0,1,0,0)"><g id="svga-group-humanwrap" transform="matrix(1,0,0,1,0,0)"><g id="svga-group-hair-back-move" transform="matrix(1,0,0,1,0,0)"><g id="svga-group-hair-back" transform="matrix(1,0,0,1,0,0)"></g></g><g id="svga-group-humanbody-back"><path id="SvgjsPath10997" d="M166.5 181.1c-10.9-6.6-27.6-8.4-35-12.1-4.9-2.5-9.1-4.7-8.9-17.8s1.9-42.4 1.9-42.4H75.4s1.6 29.4 1.9 42.4-4.2 15.6-8.9 17.8c-7.4 3.5-24.1 5.4-35 12.1-10.8 6.6-10 18.9-10 18.9v19.7h153.3V200c-.1 0 .7-12.3-10.2-18.9z" fill="#ffd0bc" stroke-width="none" opacity="1" stroke="none"></path></g><g id="svga-group-chinshadow-single"><path id="SvgjsPath11237" d="M75.3 163.1c10.5 6.8 14.6 11.7 24.7 11.7 10 0 14.1-4.9 24.6-11.7-1.3-2.5-2.1-6.2-2-11.9.2-13.1 1.9-42.4 1.9-42.4H75.4s1.6 29.4 1.9 42.4c.1 5.7-.6 9.4-2 11.9z" fill="#e09879" stroke-width="none" opacity="0.65" stroke="none"></path></g><g id="svga-group-humanbody-front"><path id="SvgjsPath10998" d="M78.7 156.8c.5 4.8 1.7 9.4 3.1 13.9.8 2.3 1.6 4.6 2.6 6.9.8 2 1.7 4.2 3.1 5.9.3.4 1 0 .9-.5-.5-2.2-1.6-4.3-2.4-6.4-.9-2.2-1.7-4.4-2.5-6.6-1.5-4.4-2.8-8.9-4.1-13.3-.2-.4-.8-.3-.7.1zm41.3-1c-1.3 8.2-3.9 16.1-5.4 24.2-.1.4.4.5.6.2 3.1-7.7 4.1-16.1 5.1-24.3-.1-.2-.3-.2-.3-.1zm-25.8 11.9c-.9 3.6 1.9 8.6 6.2 7.6.5-.1.4-.8 0-1-1.4-.5-2.9-.9-3.9-2.1-1.1-1.2-1.5-2.9-1.4-4.5 0-.4-.8-.5-.9 0z" fill="#e09879" stroke-width="none" opacity="1" stroke="none"></path><path id="SvgjsPath10999" d="M177.3 219.7c-.1-6.6-.3-13.1-.3-19.7l-.3-.3c.1 0 .1 0 .2.1s.1.2.1.1v-1.4c0-.5-.1-.9-.1-1.4-.1-.9-.3-1.9-.5-2.8-.5-1.8-1.1-3.6-2-5.3-1.7-3.4-4.4-6.2-7.7-8.1-3.6-2.2-7.6-3.8-11.6-5.1-4-1.3-8.1-2.4-12.1-3.5-4-1.2-8.1-2.2-11.8-4.2-1.9-1-3.6-2.1-4.8-3.6-1.2-1.6-1.9-3.5-2.3-5.5-.8-4-.4-8.2-.3-12.4l.7-12.6 1.5-25.2.1-1.4h-1.4c-8.2 0-16.4 0-24.6.1l-24.6.3h-.9l.1.9c.8 11.9 1.6 23.8 2.1 35.7.1 3 .3 6 .2 8.9-.1 2.9-.4 5.9-1.6 8.6-.6 1.3-1.4 2.5-2.4 3.5s-2.3 1.8-3.6 2.4c-2.6 1.3-5.4 2.2-8.3 3-5.8 1.5-11.6 2.8-17.3 4.7-2.8.9-5.7 2-8.4 3.4-1.3.7-2.7 1.4-4 2.4-1.3.9-2.4 1.9-3.5 3.1-2.1 2.3-3.6 5.2-4.5 8.1-.5 1.5-.8 3-1 4.6-.1.8-.1 1.6-.1 2.4v2.3l-.2 17.9v1.3h1.4l38.3.2c12.8.1 25.5.1 38.3 0 12.8-.1 25.6-.1 38.3-.3 12.8-.2 25.6-.5 38.3-.7h.6v-.5zm-77.2-1.6H61.8l-37 .2-.1-16.6v-2.2c0-.7 0-1.4.1-2.1.1-1.4.4-2.8.8-4.2.8-2.7 2.1-5.3 3.9-7.5.9-1.1 2-2.1 3.1-2.9 1.1-.9 2.4-1.6 3.7-2.3 2.6-1.4 5.3-2.5 8.1-3.5 5.6-2 11.4-3.4 17.1-5.1 2.9-.8 5.8-1.7 8.5-3.1 1.3-.7 2.7-1.5 3.8-2.6 1.1-1.1 2-2.4 2.6-3.9 1.2-2.9 1.5-5.9 1.6-8.9 0-3-.1-6-.2-9l-1.3-34.8 23.5.4c7.7.1 15.4.1 23.1.1-.4 7.9-.8 15.9-1.1 23.8-.2 4.2-.2 8.4-.3 12.6 0 4.2-.2 8.5.8 12.8.5 2.1 1.3 4.2 2.8 6 1.4 1.7 3.4 2.9 5.3 3.8 3.9 1.9 8 2.8 12.1 3.8s8.2 2 12.2 3.3c4 1.3 7.9 2.8 11.5 5 3.2 1.9 5.8 4.7 7.5 8 .9 1.6 1.5 3.4 1.9 5.2.2.9.4 1.8.4 2.7.1.5.1.9.1 1.4V200l-.3 19c-12.6-.2-25.1-.5-37.7-.7-12.7-.1-25.5-.1-38.2-.2z" fill="#d17f5b" stroke-width="none" opacity="1" stroke="none"></path></g><g id="svga-group-clothes-single"><path id="SvgjsPath11141" d="M100.8 184.4c-1.1-3-8.2-7.8-13.2-10.6s-7-4.9-10-8.8c-1.8-3.6-1-8.9-1-8.9-.1-4.7-.6-9.5-.9-14.7-8.2-1.1-13.1 3.7-14 4.6-6.5 6.3-3.1 8.5-5.7 11.5-9.2 2.1-7.1 14.2-10.7 15-8.7 1.9-21.2 7-24.2 21 0 0-1.6 9.2-1.6 26.7h160.7c0-17.5-1.6-26.7-1.6-26.7-3.2-15.2-17.6-19-26.1-21.4-1.4-.6.2-5.2-2.5-10.5-1.4-2.7-3.9-6.5-9.3-7.8 0 0-1.2-6.6-5.4-9.9-4.2-3.3-11.2-2.5-11.2-2.5s-.3 14.1-.3 16.1c0 3.2-.2 4.9-1.6 6.6s-4.4 3.9-6.9 7.5-10.1 7.5-11.7 9c-1.4 1.4-2.8 3.8-2.8 3.8z" fill="#1d282e" stroke-width="none" opacity="1" stroke="none"></path><path id="SvgjsPath11142" d="M105.6 187.4c-.6.6-1.7 3.4-1.8 5.7s1.8 11.5 2.1 13.4-1 7.4-1 8.5 2.8 2.8 3.1 1.7c.3-1.1 1.2-8.4.2-10.9s-2.2-10.1-2.2-11.6 1.1-5.6 1.6-6.5c0 0 .2-.8-.6-.9-.8-.1-1.4.6-1.4.6z" fill="#d6d6d6" stroke-width="none" opacity="1"></path><path id="SvgjsPath11143" d="m95.6 186.8.1-.2s1.8-1.3 1.9.9c0 0-1.2 2.8-1.2 4.8s2.2 11.9 2.5 14.1-2.7 10.4-3.1 10.5-2.1-.9-2.6-1.3c-.4-.4 2.5-6.9 2.8-9.9.3-2.9-.4-8.7-1.2-12.2-.8-3.5.4-5.9.8-6.6v-.1z" fill="#d6d6d6" stroke-width="none" opacity="1"></path><path id="SvgjsPath11144" d="M181.4 204.3c-.2-2.6-.4-5.2-.7-7.9l-.2-2-.1-1v-.3c0-.1 0-.2-.1-.3l-.1-.5c-.3-1.4-.7-2.7-1.2-4-1.1-2.6-2.6-5-4.4-7.1-1.9-2.1-4.1-3.8-6.5-5.2-4.6-2.7-9.6-4.2-14.5-5.5v-.1c-.1-.4-.1-.9-.1-1.4-.1-1-.1-2-.3-3.1-.3-2.1-1.1-4.2-2.1-6-1-1.8-2.4-3.6-4.1-4.9-1.5-1.2-3.2-2-5-2.6-.4-1.4-.8-2.8-1.4-4.1-.7-1.6-1.6-3.1-2.9-4.4-1.3-1.4-3.4-2.5-5-3-5.1-1.2-8.6-.4-8.6-.4s-1.2 9.6-2.9 22.5c0 0-3.9 4.9-5.3 6.8-.4.4-.7 1-1.1 1.4-.2.2-.3.4-.5.6l-.6.6c-.8.8-1.7 1.5-2.6 2.2-1.8 1.4-3.8 2.7-5.7 4-.5.3-1 .7-1.4 1.1-.5.4-.8.9-1.2 1.3-.4.5-.7.9-1 1.4l-.5.8-.2.4-.1.1-.2-.3-.3-.6c-.2-.4-.5-.7-.8-1l-1.8-1.8c-1.3-1.1-2.6-2.2-4-3.2s-2.8-1.9-4.2-2.8c-1.4-.9-2.9-1.7-4.2-2.7-2.7-2-4.5-4.6-6.6-7.1-1.1-1.3-1.7-3.5-1.9-4.9-.1-1 .6-10.8-.2-17.9 0-.4-.7-.9-5.6-1.1-5 .1-8.8 3.3-10.4 4.9-1.5 1.6-3.1 3.3-3.9 5.6-.4 1.1-.5 2.4-.7 3.4-.1.9-.3 1.4-.7 1.9-1.7.4-3.3 1.3-4.5 2.5-1.4 1.4-2.3 3-2.9 4.7-.7 1.7-1.1 3.4-1.5 4.9-.2.8-.5 1.5-.8 2.1-.1.3-.3.4-.4.5 0 0-.1 0-.1.1l-.6.1c-3.3.8-6.6 1.9-9.8 3.4-3.1 1.6-6 3.6-8.4 6.2-2.4 2.6-4.2 5.7-5.3 9-.3.8-.5 1.7-.7 2.5l-.1.7c0 .1 0 .2-.1.4v.3l-.2 1.3c-.2 1.7-.3 3.4-.5 5-.5 6.7-.6 13.4-.5 20.1 0 .4.1 1.3.5 1.3 13.4-.2 160.9.2 160.9.2.8 0 1.5-.7 1.5-1.5-.1-5-.2-10.3-.6-15.6zm-27.8-33.4zm-28.8-26.1c1 .6 4.7 2.5 6 5.1.1.8.2 1.8 0 2.6s-.6 1.5-1.1 2.3c-2.1 2.6-6.1 6.3-6.5 6.8 5.1-8.8 1.6-16.8 1.6-16.8zm-50.4 17.7c.9 1.4 4 4.3 5 5.5-.4-.3-3.9-3-4.3-3.2-1.2-.8-1.8-1.7-2.7-2.9-1.8-2.2-2.7-5.1-3.4-8-.3-1.4-.6-2.9.3-3.8 2.2-1.5 5.9-2 6.1-2.1.2 2.7-3.2 5.8-3.1 8.5-.1.3-.1.4-.1.7v.8c.1.5.2 1 .3 1.4.3.7 1.4 2.3 1.9 3.1zM48 171.8c.5-.9.8-1.8 1-2.6.5-1.7.8-3.2 1.4-4.7.5-1.5 1.3-2.8 2.3-3.8s2.3-1.7 3.7-2c.2 0 .3-.1.5-.2.1 1.1.2 2.2.4 3.3.3 1.7.7 3.4 1.4 5 .3.9.8 1.6 1.2 2.4.5.7 1 1.5 1.5 2.2 2.3 2.8 5.1 4.8 8.2 6.4 3.1 1.6 6.3 2.8 9.7 3.4-3.1-1.4-6.1-3-8.9-4.8-1.4-.9-2.8-1.8-4-2.9-1.3-1.1-2.5-2.2-3.4-3.4-.5-.6-1-1.3-1.4-1.9-.4-.7-.8-1.4-1.1-2.1-.7-1.4-1.1-3.1-1.6-4.6-.4-1.4-.7-2.9-.9-4.3.1-.2-.8-5.1 4.4-9.9 1.4-1.5 3-2.8 4.6-3.8 4.2-2.4 6.8-1.4 8.1-1.2.1 2 .2 3.1.3 5.1-.3.1-4.2 1-4.5 1.1-.7.3-1.5.5-2.2 1.1-.7.5-1.1 1.5-1.2 2.3-.1.9 0 1.7.1 2.5.4 3.1 1.3 6.3 3.3 8.9 1 1.3 2.3 2.4 3.6 3.2l3.9 2.4c1.3.8 2.6 1.5 3.9 2.2.8.6 1.5 1.2 2.3 1.7 1.4 1 2.9 1.8 4.4 2.6 1.4.8 2.9 1.7 4.3 2.6s2.8 1.9 4.1 2.9c.7.5 1.3 1.1 1.9 1.7.3.3.6.6.8.9.1.2.2.3.3.5l.2.3c.1.1.2.3.3.4 0 0 .1 0 .2-.1v-.1l.1-.1.1-.2.2-.4.5-.7c.3-.5.7-.9 1.1-1.4.4-.4.8-.9 1.2-1.2.4-.3.9-.7 1.4-1 2-1.2 4-2.4 5.9-3.8 1-.7 1.9-1.4 2.8-2.2.2-.2.4-.4.7-.6.2-.2.4-.4.6-.7.4-.5.7-.9 1.1-1.4 1.5-1.7 3.2-3.3 4.9-4.9l2.6-2.4c.7-.7 3.2-2.8 3.6-3.2 1.5-1.3 2.8-2.7 3.8-4.5 1-1.8.9-4 .2-6.1-1.1-2.4-5.6-5-6.9-5.8l-.1-2.5c.2.1 4.4-.9 8.1 1.4 2.5 1.6 4.6 5.3 5.3 6.7.6 1.4 1.1 2.9 1.4 4.4.1.5.5.9 1 1.1.1 0 .1 0 .2.1-.2 2-.6 4-1.4 5.8-.6 1.5-1.3 2.9-2.3 4-1 1.2-2.2 2.3-3.4 3.3-.6.5-1.2 1-1.8 1.6l-1.9 1.5c-1.3 1-2.6 2-3.9 2.9-2.6 1.9-5.3 3.8-7.9 5.8 3.1-1.3 6-2.8 8.8-4.5 2.8-1.7 5.6-3.6 8.1-5.8.6-.6 1.3-1.1 1.8-1.7l.9-.9.8-1c1.1-1.4 1.8-3 2.3-4.7.6-2 .8-4 .7-6.1 1.4.5 2.6 1.1 3.7 2.1 1.4 1.1 2.4 2.6 3.3 4.2.9 1.6 1.5 3.3 1.7 5.1.1.9.2 1.8.2 2.8 0 .5 0 1 .1 1.6 0 .3.1.6.2 1.1.1.2.2.5.4.7l.1.1-1.4 1.4c-.9.8-1.9 1.6-2.8 2.4-1.9 1.6-3.9 3.1-5.9 4.5-2 1.4-4 2.9-6.1 4-1.1.6-2.1 1.1-3.2 1.5-1.1.4-2.3.8-3.5 1.1-2.4.7-4.8 1.3-7.2 1.8-2.4.6-4.8 1.1-7.2 1.5l-3.6.6c-.6.1-1.2.1-1.7.1-.6 0-1.1-.2-1.6-.4l-.2-.1c.3-1.1.6-2.3 1-3.3.1-.2 0-.5-.1-.7s-.4-.3-.7-.3c-.5 0-.9.3-1.2.6.3-.4.8-.6 1.2-.6.2 0 .5.1.6.3.1.2.2.4.1.7-.5 1.2-.8 2.4-1.2 3.7-.3 1.2-.6 2.6-.4 3.9.2 2.6.6 5.1 1.1 7.7.1.6.3 1.3.4 1.9l.3.9c.1.3.2.6.2.9.2 1.2.2 2.5.2 3.8-.1 1.3-.2 2.6-.3 3.8-.1.6-.2 1.3-.3 1.9 0 .1-.1.3-.1.4-.1 0-.4 0-.6-.1-.5-.2-1-.6-1.3-1-.1-.1-.1-.2-.2-.3v-.3c0-.3.1-.6.1-.9.2-1.3.4-2.5.6-3.8.1-.6.2-1.3.2-1.9 0-.6 0-1.4-.1-2l-.8-3.8c-.5-2.5-1.1-5.1-1.4-7.6-.1-.6-.1-1.3-.1-1.9 0-.5.1-.9.2-1.4 0 0 .1-.4.1-.5.2-.6.3-1.2.6-1.9-.2.6-.4 1.2-.6 1.9 0 .1-.1.3-.1.4-1-.6-2.1-.9-3.3-1.1-1.3-.2-2.5-.3-3.8-.5.2-.8.4-1.5.7-2.2 0-.2-.1-.5-.2-.7s-.2-.4-.5-.6c-.5-.2-1 0-1.4.3.4-.2.9-.4 1.3-.2s.5.8.5 1.2c-.5 1.2-1 2.4-1.2 3.8-.1.6-.2 1.4-.1 2 .1.7.2 1.3.3 2 .4 2.6.9 5.2 1.4 7.8l.3 1.9c.1.6.2 1.3.2 1.9-.1 1.2-.4 2.5-.8 3.7-.4 1.2-.8 2.5-1.2 3.7-.2.6-.5 1.2-.7 1.8-.1.1-.1.2-.2.4-.2-.1-.4-.1-.7-.3-.3-.1-.6-.3-.8-.5-.1-.1-.2-.2-.4-.3l-.1-.1c0-.2.1-.5.2-.8l.3-.9 1.3-3.7c.4-1.3.8-2.5 1-3.9.2-1.4.1-2.7 0-4-.2-2.6-.7-5.2-1.2-7.8-.6-1.8-.6-3.9-.1-5.7h.1s0-.1-.1-.1c.2-.6.4-1.2.7-1.8-.3.5-.6 1.1-.8 1.7-.5-.6-.8-1.4-.6-1.9.2-.6.8-1 1.6-.9.7 0 1.4.4 2 .9.3.3.5.6.6 1 .1.3-.1.7-.5 1 .2 0 .5-.1.7-.3s.3-.5.3-.7c0-.5-.2-1-.5-1.4-.6-.8-1.5-1.4-2.5-1.5-.5 0-1.1.1-1.6.4s-.8.8-.8 1.4c-.1 1.1.6 1.8 1.4 2.2-.1.4-.2.7-.3 1.1l-5.5-.7c-2.6-.4-5.2-.6-7.8-1-2.6-.4-5.2-.8-7.7-1.3-1.3-.2-2.5-.5-3.7-.9-1.2-.3-2.4-.9-3.6-1.4-2.4-1-4.7-2.3-6.9-3.5-2.3-1.3-4.5-2.6-6.7-4-1.1-.7-2.2-1.4-3.2-2.2l-1.5-1.2-.6-.6c-.1-1 .1-1.3.3-1.6zm52 47.5-20.1.2-20.1.1c-13.2.1-26.3 0-39.5-.2.1-6.4.4-12.9 1.1-19.3.2-1.6.4-3.3.6-4.9l.2-1.2v-.3c0-.1 0-.2.1-.3l.1-.6c.2-.8.4-1.5.7-2.3 1.1-3 2.8-5.7 5-8s4.9-4.1 7.8-5.5c2.9-1.4 6-2.5 9.1-3.2l.6-.1c.4-.1.7-.2 1-.5.2-.1.3-.2.4-.4.5.8 1.2 1.4 1.9 2.1 1 .9 2 1.8 3 2.6 2.1 1.6 4.2 3.1 6.5 4.6 2.2 1.4 4.5 2.7 6.9 3.9 1.2.6 2.4 1.1 3.8 1.5 1.3.4 2.6.7 3.9 1 5.2 1 10.4 1.6 15.7 1.9 2.2.1 3.4.2 5.5.2-.1 1.2 0 2.5.2 3.7.5 2.6.8 5.2.9 7.8.1 1.3.1 2.6-.1 3.9-.2 1.2-.6 2.5-1 3.7l-1.3 3.7c-.1.3-.2.6-.3 1-.1.3-.2.6-.2 1.1v.3c0 .1.1.2.1.2l.1.1c.1.1.2.1.2.2.1.1.3.2.4.3.3.2.6.4.9.5.3.2.6.3 1.1.4h.4c.2-.1.2-.1.3-.2.1-.1.2-.2.2-.3.1-.2.2-.3.2-.5.3-.6.5-1.2.7-1.9.4-1.2.8-2.5 1.2-3.8.3-1.3.7-2.6.8-4 0-.8-.2-1.4-.3-2-.1-.6-.2-1.3-.4-1.9-.5-2.6-1.1-5.1-1.6-7.7-.1-.6-.2-1.3-.3-1.9-.1-.6-.1-1.3 0-1.9 0-.2.1-.4.1-.6 2.4.1 4.9-.1 7.2.7-.1.5-.2.9-.2 1.4-.1.6 0 1.3.1 1.9.3 2.6.7 5.1 1.1 7.7l.6 3.8c.2 1.2-.1 2.5-.3 3.7l-.7 3.8c-.1.3-.1.6-.1 1 0 .1 0 .5.1.7.1.2.2.4.3.5.5.6 1.1 1 1.7 1.3.3.1.7.3 1.3.2.3-.1.6-.4.7-.6.1-.2.1-.4.1-.5.1-.7.2-1.3.3-2 .2-1.3.2-2.6.3-3.9 0-1.3 0-2.6-.3-3.9-.1-.3-.2-.7-.3-1l-.3-.9c-.2-.6-.4-1.2-.5-1.9-.6-2.5-1.1-5-1.5-7.6-.2-1-.1-2.1.2-3.1.6.3 1.3.5 1.9.6.3.1.7.1 1 .1h1c1.3 0 2.5-.2 3.8-.3 5-.6 9.9-1.6 14.7-2.9 1.2-.4 2.4-.7 3.6-1.2 1.2-.4 2.4-1 3.5-1.7 2.2-1.3 4.2-2.8 6.1-4.4 1.9-1.6 3.8-3.2 5.6-5 .9-.9 1.8-1.8 2.6-2.8.4-.5.8-1 1.2-1.6.2.1.4.3.6.4.1 0 .1.1.2.1 5 1.4 9.9 2.9 14.2 5.5 4.3 2.5 7.7 6.2 9.6 10.7.4 1.1.8 2.3 1.1 3.5l.1.4v.4l.1.9.2 1.9c.3 2.6.5 5.1.7 7.7.3 4.7.5 9.4.5 14.1l-38.6.2c-13.2.2-26.6.4-40 .6zm4.7-30.4c-.3-.4-.4-.8-.4-1.1 0-.4.1-.7.3-1 .4-.5 1.2-.7 1.9-.6.7.1 1.5.5 1.8 1.1.2.3.2.6.1 1s-.4.7-.7 1.1c.4-.1.8-.4 1.1-.9.3-.4.3-1.1.1-1.6-.4-1-1.4-1.6-2.4-1.8-.5-.1-1-.1-1.5.1s-1 .5-1.2 1c-.2.4-.3 1-.2 1.5.3.6.7 1 1.1 1.2zM41 209.2c-.7-2.7-1.6-5.3-2.8-7.8-1.2-2.5-2.7-4.9-4.5-7-1.8-2.1-3.8-4.1-6.2-5.4 1.1.8 2.1 1.8 3 2.8 1 1 1.8 2 2.6 3.1 1.6 2.2 3 4.5 4.2 7 .6 1.2 1.2 2.4 1.6 3.7.5 1.2.9 2.6 1.4 3.8.4 1.3.7 2.6 1.1 3.9.3 1.3.6 2.7.9 4-.1-1.4-.3-2.7-.5-4.1-.2-1.3-.4-2.6-.8-4zm125.6-13.9c-1.8 1.9-3.3 4.1-4.5 6.4-1.2 2.3-2.2 4.8-3 7.3-.4 1.2-.6 2.5-1 3.8l-.6 3.9c.4-1.2.7-2.5 1.1-3.7.4-1.2.8-2.5 1.2-3.7.2-.6.5-1.2.7-1.8s.5-1.2.8-1.8c.5-1.2 1.1-2.3 1.7-3.5 1.2-2.2 2.6-4.4 4.2-6.4.8-1 1.7-1.9 2.6-2.9.9-.9 1.9-1.8 3-2.4-2.4 1.1-4.4 2.9-6.2 4.8z" fill="#070c0f" stroke-width="none" opacity="1" stroke="none"></path></g><g id="svga-group-head" transform="matrix(1,0,0,1,0,0)"><g id="svga-group-ears-left-move" transform="matrix(1,0,0,1,0,0)"><g id="svga-group-ears-left" transform="matrix(1,0,0,1,0,0)"><path id="SvgjsPath11157" d="M62 92.9c-.2-.3-3.3-4.3-5.9-6.7-2.6-2.4-3.4-2.4-4.6-.9-1.3 1.5-2.9 9.1-2.5 12.4.4 3.4 3.6 8.7 5.2 11.7 1.7 3 3.3 6.7 5.1 6.3 1.9-.4 4.4-4.6 5.7-7.7 1.3-3.1.5-10.8-3-15.1z" fill="#ffd0bc" stroke-width="none" opacity="1" stroke="none"></path><path id="SvgjsPath11158" d="M65.8 102c.1.9.2 1.7.2 2.6s0 1.7-.2 2.6c-.1.4-.2.9-.3 1.3-.1.4-.3.7-.4 1.1-.3.7-.6 1.4-1 2.1-.7 1.3-1.5 2.6-2.6 3.6-.5.5-1.1 1-1.8 1.3-.4.1-.9.1-1.3 0-.4-.2-.8-.5-1.1-.8-1.2-1.3-1.9-2.8-2.7-4.3-.7-1.5-1.5-2.9-2.2-4.3-.7-1.5-1.5-2.9-2.1-4.4-.3-.8-.7-1.5-.9-2.3-.3-.8-.5-1.6-.6-2.5-.2-1.7 0-3.4.1-5 .2-1.6.5-3.2.8-4.8.2-.8.4-1.6.8-2.3l.3-.6c.1-.2.3-.4.4-.5.2-.3.5-.6.9-.8.3-.2.8-.3 1.2-.3.4.1.8.3 1.1.5.7.4 1.2 1 1.8 1.5 2.2 2.2 4 4.8 5.9 7.2 1.9 2.4 3.2 5.7 3.7 9.1zM55.7 86.4c-1.1-.9-2.4-1.9-3.1-1.2-.2.1-.4.4-.6.6l-.3.3c-.1.1-.1.3-.2.4-.3.6-.5 1.3-.8 2-.5 1.4-.9 2.9-1.1 4.5-.3 1.5-.5 3.1-.4 4.7.1.8.3 1.6.6 2.3.3.8.6 1.5.9 2.2.7 1.5 1.5 2.8 2.3 4.2.8 1.4 1.7 2.7 2.5 4.1.4.7.8 1.4 1.2 2s.8 1.3 1.3 1.7c.5.4.9.6 1.3.4.5-.2.9-.6 1.4-1.1.9-1 1.6-2.1 2.3-3.4.4-.6.7-1.3 1-1.9.2-.3.3-.7.4-1l.2-.5c0-.2.1-.3.1-.5.3-1.4.4-3 .3-4.6s-.4-3.2-.9-4.8c-.5-1.6-1.2-3-2.2-4.2-1.9-2.1-4-4.3-6.2-6.2z" fill="#f0b399" stroke-width="none" opacity="1" stroke="none"></path><path id="SvgjsPath11159" d="M51.2 99.4c-.3-2.3-.5-7.8.8-9.6 2.2-2.9 6 6.4 6.9 9.3 0 .1.1.2.1.3.2.3-.1.7-.4.6-.4-.2-.9-.6-1.3-.8-1.1-.5-1.6.5-1.3 1.8.4 1.8 1.4 2.9 2.2 4.3.1.2 0 .4-.2.3-1.6-.9-3.5-4.5-3.1-6.6.3-2 1.9-1.8 3.1-.8-.7-1.7-1.5-3.3-2.5-4.8-.6-.9-1.2-2-2.2-2.2-1.2-.2-1 .3-1.2 1.8-.8 4.8-.3 10.4 2.5 14.5.1.1 0 .2-.1.1-1.8-2.3-3-4.9-3.3-8.2z" fill="#e09879" stroke-width="none" opacity="1" stroke="none"></path></g></g><g id="svga-group-ears-right-move" transform="matrix(1,0,0,1,0,0)"><g id="svga-group-ears-right" transform="matrix(1,0,0,1,0,0)"><path id="SvgjsPath11160" d="M138 92.9c.2-.3 3.3-4.3 5.9-6.7 2.6-2.4 3.4-2.4 4.6-.9 1.3 1.5 2.9 9.1 2.5 12.4s-3.6 8.7-5.2 11.7c-1.7 3-3.3 6.7-5.1 6.3-1.9-.4-4.4-4.6-5.7-7.7s-.5-10.8 3-15.1z" fill="#ffd0bc" stroke-width="none" opacity="1" stroke="none"></path><path id="SvgjsPath11161" d="M138 92.9c1.9-2.4 3.8-5 5.9-7.2.5-.5 1.1-1.1 1.8-1.5.3-.2.7-.4 1.1-.5.4-.1.9.1 1.2.3.3.2.6.5.9.8.1.1.2.3.4.5l.3.6c.3.7.6 1.5.8 2.3.4 1.6.7 3.2.8 4.8.2 1.6.3 3.3.1 5-.1.9-.4 1.7-.6 2.5-.3.8-.6 1.6-.9 2.3-.7 1.5-1.4 3-2.1 4.4-.8 1.5-1.5 2.9-2.2 4.3-.8 1.4-1.4 3-2.7 4.3-.3.3-.7.6-1.1.8-.4.2-.9.2-1.3 0-.8-.3-1.3-.8-1.8-1.3-1-1.1-1.8-2.3-2.6-3.6-.4-.7-.7-1.4-1-2.1-.2-.4-.3-.7-.4-1.1-.1-.4-.3-.8-.3-1.3-.1-.9-.2-1.7-.2-2.6s.1-1.7.2-2.6c.4-3.4 1.7-6.7 3.7-9.1zm.1.1c-1 1.2-1.7 2.7-2.2 4.2-.5 1.6-.8 3.2-.9 4.8-.1 1.6 0 3.2.3 4.6 0 .2.1.3.1.5l.2.5c.1.3.3.7.4 1 .3.7.6 1.3 1 1.9.7 1.2 1.5 2.4 2.3 3.4.4.5.9.9 1.4 1.1.4.2.8 0 1.3-.4s.9-1 1.3-1.7c.4-.6.8-1.3 1.2-2 .8-1.4 1.7-2.8 2.5-4.1.8-1.4 1.6-2.8 2.3-4.2.4-.7.7-1.5.9-2.2.3-.8.5-1.6.6-2.3.1-1.6-.1-3.2-.4-4.7-.3-1.5-.7-3-1.1-4.5-.2-.7-.5-1.4-.8-2-.1-.1-.1-.3-.2-.4-.1-.1-.1-.2-.3-.3-.2-.2-.4-.5-.6-.6-.7-.6-2 .4-3.1 1.2-2.2 1.5-4.3 3.7-6.2 6.2z" fill="#f0b399" stroke-width="none" opacity="1" stroke="none"></path><path id="SvgjsPath11162" d="M148.8 99.4c.3-2.3.5-7.8-.8-9.6-2.2-2.9-6 6.4-6.9 9.3 0 .1-.1.2-.1.3-.2.3.1.7.4.6.4-.2.9-.6 1.3-.8 1.1-.5 1.6.5 1.3 1.8-.4 1.8-1.4 2.9-2.2 4.3-.1.2 0 .4.2.3 1.6-.9 3.5-4.5 3.1-6.6-.3-2-1.9-1.8-3.1-.8.7-1.7 1.5-3.3 2.5-4.8.6-.9 1.2-2 2.2-2.2 1.2-.2 1 .3 1.2 1.8.8 4.8.3 10.4-2.5 14.5-.1.1 0 .2.1.1 1.8-2.3 3-4.9 3.3-8.2z" fill="#e09879" stroke-width="none" opacity="1" stroke="none"></path></g></g><g id="svga-group-faceshape-wrap" transform="matrix(1,0,0,1,0,0)"><g id="svga-group-faceshape-single"><path id="SvgjsPath11227" d="M142.7 105.7c-.5-4.6-.6-5.7-.1-12.3.4-4.9.6-10.1.6-11.5v-.3c-1.3-29.9-20.7-46.4-43.2-46.4S58.1 51.8 56.9 81.7v.3c0 1.4.2 6.6.6 11.5.5 6.5.4 7.6-.1 12.3-.5 5.2-2.3 15.5-1.6 19.9.9 5.6 2.9 9.5 14.3 16 14.7 8.4 18.4 16 30 16 11.5 0 15.3-7.6 30-16 11.3-6.5 13.4-10.4 14.3-16 .6-4.5-1.2-14.8-1.7-20z" fill="#ffd0bc" stroke-width="none" opacity="1" stroke="none"></path><path id="SvgjsPath11228" d="M142.6 93.4c.4-4.9.6-11.8.6-11.8-1.3-29.9-20.7-46.4-43.2-46.4S58.1 51.8 56.9 81.7v.3c0 1.4.2 6.6.6 11.5.5 6.5.4 7.6-.1 12.3-.5 5.2-2.3 15.5-1.6 19.9.9 5.6 2.9 9.5 14.3 16 14.7 8.4 18.4 16 30 16 11.5 0 15.3-7.6 30-16 11.3-6.5 13.4-10.4 14.3-16 .6-4.5-1.2-14.8-1.7-20-.5-4.6-.6-5.7-.1-12.3zm1 26.7c.2 1.8.3 2.6.2 4.4 0 .9-.2 1.7-.5 2.5-.2.8-.6 1.6-1 2.4-.8 1.5-2 2.8-3.3 3.9-2.6 2.3-4.8 4.1-7.9 5.8l-4.9 2.6c-1.6.9-3.2 1.9-4.8 2.8-1.6 1-3.1 2-4.7 3-1.5 1-3 2-4.5 2.9-3 1.8-6 3.1-9.2 3.4-1.6.2-3.3.2-5 .1-1.6-.2-3.2-.5-4.7-1-1.5-.6-3-1.3-4.5-2.1-1.5-.9-2.9-1.9-4.4-2.9-3-2.1-6-4.3-9.3-6.2-.8-.5-1.6-1-2.4-1.4l-2.4-1.4c-1.6-.9-3.1-1.8-4.6-2.8-2.9-1.9-4.7-4.1-6.3-6.6-.8-1.3-1.3-2.7-1.5-4.3 0 0-.1-.9-.1-1.1v-1.2c0-.8.1-1.7.2-2.6.3-3.5.8-11.4 1-13.3s.3-2.7.3-4.6c.1-3.8-.5-7.5-.7-11.2l-.4-5.4-.1-2.8c0-.4-.1-.9-.1-1.3l.1-1.3c.1-3.6.5-7.2 1.3-10.7 1.6-7 4.6-13.8 9.3-19.3 1.2-1.3 2.4-2.7 3.8-3.8l1-.9c.3-.3.7-.6 1-.8l2.2-1.5c3-1.9 6.2-3.5 9.7-4.4 1.7-.6 3.4-.9 5.2-1.2.9-.2 1.8-.2 2.6-.3.9-.1 1.7-.2 2.6-.2h2.6c.9 0 1.8.1 2.6.2 1.8.1 3.5.5 5.2.7 3.4.7 6.8 1.7 9.9 3.3 1.6.7 3 1.7 4.5 2.5l2.1 1.5 1.1.8c.4.3.7.6 1 .8l1.9 1.7c.6.6 1.2 1.3 1.8 1.9 1.3 1.2 2.2 2.7 3.3 4 .5.7.9 1.5 1.4 2.2.4.8 1 1.5 1.4 2.3l1.2 2.4c.2.4 1.1 2.4 1.1 2.4l1 2.5c.3.8 2.2 7.7 2.2 7.7.2.9 1 3.4 1.1 8.1V85c0 1.8-.1 3.7-.1 5.5s-.1 3.7-.2 5.5c-.1 1.8-.2 3.7-.1 5.5.1 1.8.6 8.5 1.8 18.6z" fill="#d17f5b" stroke-width="none" opacity="1" stroke="none"></path></g></g><g id="svga-group-mouth-single-move" transform="matrix(1,0,0,1,0,0)"><g id="svga-group-mouth-single" transform="matrix(1,0,0,1,0,0)"><path id="SvgjsPath11319" d="M88.14 127.85s.96-2.13 3.29-3.87c2.09-1.55 3.96-2.36 7.38-2.71s6.52.56 7.91 1.24c2.98 1.47 5.3 4.94 5.3 4.94s-2.71 1.82-5.51 1.52c-2.8-.31-5.38-1.42-7.03-1.02-1.65.4-5.96 1.47-7.56 1.47-1.6-.02-3.78-1.57-3.78-1.57z" fill="#934a54" stroke-width="none" opacity="1" transform="translate(0 2)"></path><path id="SvgjsPath11320" d="M88.58 128.25s.37 2.14 3.17 3.89 5.76 1.94 8.26 2c2.49.07 6.36-.9 8.2-2.11 2.83-1.89 3.28-4.14 3.28-4.03 0 .1-2.13.79-4.23.75-2.09-.04-5.96-1.28-7.56-.96s-5.91 1.57-7.38 1.43c-1.47-.14-3.74-.97-3.74-.97z" fill="#9b565f" stroke-width="none" opacity="1" transform="translate(0 2)"></path><path id="SvgjsPath11321" d="M87.16 127.11c1.17 1.63 3.03 2.68 5.02 2.97 2.73.38 5.01-1.35 7.67-1.41 2.84-.07 5.33 1.4 8.26.96 2.09-.31 4.11-1.17 5.6-2.68.3-.3-.08-.8-.45-.59-2.01 1.2-4.06 2.1-6.46 2.02-2.27-.07-4.31-1.31-6.6-1.33-2.08-.02-3.81 1.14-5.78 1.61-2.66.63-4.97-.13-7.12-1.71-.08-.06-.21.07-.14.16z" fill="#8c4049" stroke-width="none" opacity="1" transform="translate(0 2)"></path></g></g><g id="svga-group-eyes-left-move" transform="matrix(1,0,0,1,0,0)"><g id="svga-group-eyes-left" transform="matrix(1,0,0,1,0,0)"><g id="svga-group-eyesback-left"><path id="SvgjsPath11189" d="M88.2 99.8s.1-4-2.3-6.6c-2.4-2.6-6.4-5.6-14.3-2.8 0 0 1.3 3.7 2.8 5.3 1.5 1.5 4.7 3.8 7.6 4.2 3 .3 6.2-.1 6.2-.1z" fill="#ffffff" stroke-width="none" opacity="1"></path></g><g id="svga-group-eyesiriswrapper-left" transform="matrix(1,0,0,1,0,0)"><g id="svga-group-eyesiriscontrol-left" transform="matrix(1,0,0,1,0,0)"><g id="svga-group-eyesiris-left" transform="matrix(1,0,0,1,0,0)"><path id="SvgjsPath11241" d="M80.1 88.1c3 0 5.5 2.4 5.5 5.5S83.1 99 80.1 99s-5.5-2.4-5.5-5.5 2.4-5.4 5.5-5.4z" fill="#282978" stroke-width="none" opacity="1" stroke="none"></path><path id="SvgjsPath11242" d="M80.1 87.8c-3.2 0-5.7 2.6-5.7 5.7 0 3.2 2.6 5.7 5.7 5.7 3.2 0 5.7-2.6 5.7-5.7s-2.6-5.7-5.7-5.7zm4.7 7.7c-.6-.3-1.2-.6-1.9-.8.1-.2.2-.5.2-.8.7.1 1.3.1 2 .1.1.5-.1 1-.3 1.5zm-.3.6c-.5-.4-1.1-.8-1.7-1.1 0-.1.1-.1.1-.2l1.8.9c0 .2-.1.3-.2.4zm.1-5.1c-.6.1-1.3.4-1.8.8 0-.1-.1-.1-.1-.2.2-.2.5-.3.7-.5.3-.2.6-.5.9-.7 0 .2.2.4.3.6zm.3.8c-.7.2-1.3.3-1.9.6 0-.1-.1-.2-.1-.3.3-.1.6-.3.9-.4.3-.1.7-.2 1-.4 0 .2.1.4.1.5zm-1.7 1.7c0-.3-.1-.6-.1-.8.7-.1 1.3-.3 1.9-.5.1.4.2.9.2 1.4-.6-.1-1.3-.1-2-.1zm.8-3.3c-.3.2-.6.5-.9.7-.2.2-.5.3-.7.5l-.3-.3c.4-.5.8-1.1 1.1-1.7.3.3.6.5.8.8zm-3.6 6.5c.2 0 .5-.1.7-.2.1.3.3.7.4 1 .1.3.2.6.4.8-.4.2-.9.3-1.4.3 0-.6 0-1.3-.1-1.9zm1.4-8c.4.2.9.4 1.3.7-.4.5-.8 1.1-1.2 1.6-.1-.1-.2-.1-.3-.2.1-.7.2-1.5.2-2.1zm-1.5-.3c.4 0 .8.1 1.1.2-.1.5-.1 1-.2 1.5 0 .2-.1.3-.1.5-.2-.1-.4-.1-.6-.2 0-.7-.1-1.4-.2-2zm1.6 9c-.2-.3-.3-.7-.5-1 .1 0 .1-.1.2-.1.1.3.3.6.5.9.2.3.3.6.5.9-.1.1-.2.1-.3.2-.1-.4-.3-.6-.4-.9zm.4-.4c-.2-.3-.3-.6-.5-.9.1-.1.2-.1.3-.2.3.6.7 1.1 1.2 1.6-.1.1-.3.2-.4.3-.2-.2-.5-.5-.6-.8zm-2.1-8.6c-.1.6-.1 1.3-.1 2h-.4c0-.2-.1-.4-.1-.6-.1-.4-.1-.9-.2-1.4.2 0 .4-.1.6-.1.1 0 .1 0 .2.1zm-2.8.7c.3.6.7 1.2 1.1 1.7-.1.1-.2.1-.2.2-.1-.1-.2-.3-.4-.4-.3-.4-.6-.8-1-1.1.2-.2.3-.3.5-.4zm2 1.3c-.1 0-.2 0-.2.1-.2-.7-.4-1.3-.6-1.9.2-.1.4-.1.7-.2-.1.7-.1 1.4.1 2zm-.5.2s-.1 0-.1.1c-.3-.6-.7-1.2-1.1-1.7.2-.1.5-.2.7-.3.1.6.2 1.3.5 1.9zm-.5 5.6c.1 0 .1.1.2.1-.1.2-.2.3-.2.5-.2.4-.5.9-.6 1.3l-.6-.3c.3-.3.5-.7.8-1 .1-.2.3-.4.4-.6zm.4.7c.1-.1.1-.3.2-.4h.1c-.3.6-.5 1.3-.6 1.9-.2-.1-.3-.1-.5-.2.3-.4.5-.9.8-1.3zm.6-.3c.1 0 .2 0 .3.1-.2.6-.2 1.3-.3 2-.2 0-.5-.1-.7-.1.3-.7.5-1.4.7-2zm-2.7-7c.2.4.5.7.8 1 .2.2.3.4.4.6-.1.1-.3.2-.4.4-.5-.4-1.1-.8-1.7-1.1.4-.4.6-.7.9-.9zm-1.1 6.5 1.5-.9c.1 0 .1-.1.2-.1.1.1.2.3.3.4-.5.4-1 1-1.4 1.4-.3-.2-.4-.5-.6-.8zm-.5-1.1c.4-.1.8-.3 1.1-.4.2-.1.5-.2.7-.3 0 .2.1.3.2.5-.1.1-.2.1-.3.2-.5.3-.9.6-1.4 1-.1-.4-.2-.7-.3-1zm-.2-1.5c0-.2 0-.3.1-.5.6.2 1.3.3 2 .3v.5c-.3.1-.6.2-.9.4-.3.1-.7.2-1 .4-.2-.3-.2-.7-.2-1.1zm.3-1.6c.4.2.9.4 1.3.6.2.1.3.2.5.2 0 .1-.1.2-.1.3-.2 0-.3-.1-.5-.1-.5-.1-1-.2-1.5-.1l.3-.9zm.6-1.3c.5.4 1 .9 1.6 1.2-.1.2-.2.3-.3.5-.1 0-.2-.1-.3-.1-.5-.2-1.1-.4-1.6-.6.2-.4.4-.7.6-1zm.5 6.5c.5-.4 1.1-.9 1.5-1.4l.3.3c-.2.2-.3.4-.4.6-.3.3-.5.7-.8 1-.2-.1-.4-.3-.6-.5zm3.5 1.6c.1-.7.2-1.3.2-2h.2c-.1.7-.1 1.4 0 2h-.4zm3.7-1.3c-.4-.5-.9-1-1.3-1.5.2-.2.4-.4.5-.6.5.4 1.1.8 1.7 1.2-.3.2-.6.6-.9.9z" fill="#0c0d59" stroke-width="none" opacity="1" stroke="none"></path><path id="SvgjsPath11243" d="M80.1 90.6c1.6 0 2.9 1.3 2.9 2.9s-1.3 2.9-2.9 2.9-2.9-1.3-2.9-2.9 1.2-2.9 2.9-2.9z" fill="#000000" stroke-width="none" opacity="1"></path><path id="SvgjsPath11244" d="M78.4 91c.6 0 1.1.5 1.1 1.1s-.5 1.1-1.1 1.1-1.1-.5-1.1-1.1.5-1.1 1.1-1.1zm3.6 4.1c.4 0 .6.3.6.6s-.3.6-.6.6-.6-.3-.6-.6.3-.6.6-.6z" fill="#ffffff" stroke-width="none" opacity="1"></path></g></g></g><g id="svga-group-eyesfront-left"><path id="SvgjsPath11197" d="M69.4 94.6c0 6.4 4.7 11.5 10.6 11.5s10.6-5.2 10.6-11.5S85.9 83.1 80 83.1s-10.6 5.1-10.6 11.5zm2.2-4.2c7.9-2.9 12 .2 14.3 2.8 2.4 2.6 2.3 6.6 2.3 6.6s-3.2.5-6.2.1c-2.9-.4-6.1-2.7-7.6-4.2s-2.8-5.3-2.8-5.3z" fill="#ffd0bc" stroke-width="none" opacity="1" stroke="none"></path><path id="SvgjsPath11198" d="M71.2 90.6c2.4 7.1 9.7 11.3 17.1 9.5.2-.1.2-.3.1-.4.8-3.5-1.7-7.2-4.5-9.1-3.3-2.1-9-2.9-12.4-.7-.1.1-.1.2-.1.3-.2.1-.3.2-.2.4zm.7-.2c1.6-.2 3.2-.8 4.9-.8 2.1 0 4.2.4 6 1.4 3.4 1.9 4.6 5 5.2 8.5-3.6 0-7 .1-10.2-1.7-2.8-1.6-4.8-4.3-5.9-7.4z" fill="#582311" stroke-width="none" opacity="1" stroke="none"></path></g></g></g><g id="svga-group-eyes-right-move" transform="matrix(1,0,0,1,0,0)"><g id="svga-group-eyes-right" transform="matrix(1,0,0,1,0,0)"><g id="svga-group-eyesback-right"><path id="SvgjsPath11190" d="M111.8 99.8s-.1-4 2.3-6.6c2.4-2.6 6.4-5.6 14.3-2.8 0 0-1.3 3.7-2.8 5.3-1.5 1.5-4.7 3.8-7.6 4.2-3 .3-6.2-.1-6.2-.1z" fill="#ffffff" stroke-width="none" opacity="1"></path></g><g id="svga-group-eyesiriswrapper-right" transform="matrix(1,0,0,1,0,0)"><g id="svga-group-eyesiriscontrol-right" transform="matrix(1,0,0,1,0,0)"><g id="svga-group-eyesiris-right" transform="matrix(1,0,0,1,0,0)"><path id="SvgjsPath11245" d="M119.9 88.1c3 0 5.5 2.4 5.5 5.5S123 99 119.9 99s-5.5-2.4-5.5-5.5 2.5-5.4 5.5-5.4z" fill="#282978" stroke-width="none" opacity="1" stroke="none"></path><path id="SvgjsPath11246" d="M119.9 87.8c-3.2 0-5.7 2.6-5.7 5.7 0 3.2 2.6 5.7 5.7 5.7s5.7-2.6 5.7-5.7c.1-3.1-2.5-5.7-5.7-5.7zm4.8 7.7c-.6-.3-1.2-.6-1.9-.8.1-.2.2-.5.2-.8.7.1 1.3.1 2 .1 0 .5-.1 1-.3 1.5zm-.3.6c-.5-.4-1.1-.8-1.7-1.1 0-.1.1-.1.1-.2l1.8.9c0 .2-.1.3-.2.4zm.1-5.1c-.6.1-1.3.4-1.8.8 0-.1-.1-.1-.1-.2.2-.2.5-.3.7-.5.3-.2.6-.5.9-.7 0 .2.1.4.3.6zm.3.8c-.7.2-1.3.3-1.9.6 0-.1-.1-.2-.1-.3.3-.1.6-.3.9-.4.3-.1.7-.2 1-.4 0 .2.1.4.1.5zm-1.7 1.7c0-.3-.1-.6-.1-.8.7-.1 1.3-.3 1.9-.5.1.4.2.9.2 1.4-.6-.1-1.3-.1-2-.1zm.8-3.3c-.3.2-.6.5-.9.7-.2.2-.5.3-.7.5l-.3-.3c.4-.5.8-1.1 1.1-1.7.3.3.6.5.8.8zm-3.6 6.5c.2 0 .5-.1.7-.2.1.3.3.7.4 1 .1.3.2.6.4.8-.4.2-.9.3-1.4.3 0-.6 0-1.3-.1-1.9zm1.4-8c.4.2.9.4 1.3.7-.4.5-.8 1.1-1.2 1.6-.1-.1-.2-.1-.3-.2.1-.7.2-1.5.2-2.1zm-1.5-.3c.4 0 .8.1 1.1.2-.1.5-.1 1-.2 1.5 0 .2-.1.3-.1.5-.2-.1-.4-.1-.6-.2 0-.7-.1-1.4-.2-2zm1.6 9c-.2-.3-.3-.7-.5-1 .1 0 .1-.1.2-.1.1.3.3.6.5.9.2.3.3.6.5.9-.1.1-.2.1-.3.2-.2-.4-.3-.6-.4-.9zm.4-.4c-.2-.3-.3-.6-.5-.9.1-.1.2-.1.3-.2.3.6.7 1.1 1.2 1.6-.1.1-.3.2-.4.3-.2-.2-.5-.5-.6-.8zm-2.1-8.6c-.1.6-.1 1.3-.1 2h-.4c0-.2-.1-.4-.1-.6-.1-.4-.1-.9-.2-1.4.2 0 .4-.1.6-.1.1 0 .1 0 .2.1zm-2.8.7c.3.6.7 1.2 1.1 1.7-.1.1-.2.1-.2.2-.1-.1-.2-.3-.4-.4-.3-.4-.6-.8-1-1.1.2-.2.3-.3.5-.4zm2 1.3c-.1 0-.2 0-.2.1-.2-.7-.4-1.3-.6-1.9.2-.1.4-.1.7-.2-.2.7-.1 1.4.1 2zm-.5.2s-.1 0-.1.1c-.3-.6-.7-1.2-1.1-1.7.2-.1.5-.2.7-.3.1.6.2 1.3.5 1.9zm-.5 5.6c.1 0 .1.1.2.1-.1.2-.2.3-.2.5-.2.4-.5.9-.6 1.3l-.6-.3c.3-.3.5-.7.8-1 .1-.2.3-.4.4-.6zm.3.7c.1-.1.1-.3.2-.4h.1c-.3.6-.5 1.3-.6 1.9-.2-.1-.3-.1-.5-.2.4-.4.6-.9.8-1.3zm.7-.3c.1 0 .2 0 .3.1-.2.6-.2 1.3-.3 2-.2 0-.5-.1-.7-.1.2-.7.5-1.4.7-2zm-2.7-7c.2.4.5.7.8 1 .2.2.3.4.4.6-.1.1-.3.2-.4.4-.5-.4-1.1-.8-1.7-1.1.4-.4.6-.7.9-.9zm-1.1 6.5 1.5-.9c.1 0 .1-.1.2-.1.1.1.2.3.3.4-.5.4-1 1-1.4 1.4-.3-.2-.5-.5-.6-.8zM115 95c.4-.1.8-.3 1.1-.4.2-.1.5-.2.7-.3 0 .2.1.3.2.5-.1.1-.2.1-.3.2-.5.3-.9.6-1.4 1-.1-.4-.2-.7-.3-1zm-.2-1.5c0-.2 0-.3.1-.5.6.2 1.3.3 2 .3v.5c-.3.1-.6.2-.9.4-.3.1-.7.2-1 .4-.2-.3-.2-.7-.2-1.1zm.3-1.6c.4.2.9.4 1.3.6.2.1.3.2.5.2 0 .1-.1.2-.1.3-.2 0-.3-.1-.5-.1-.5-.1-1-.2-1.5-.1.1-.3.1-.6.3-.9zm.6-1.3c.5.4 1 .9 1.6 1.2-.1.2-.2.3-.3.5-.1 0-.2-.1-.3-.1-.5-.2-1.1-.4-1.6-.6.2-.4.4-.7.6-1zm.5 6.5c.5-.4 1.1-.9 1.5-1.4l.3.3c-.2.2-.3.4-.4.6-.3.3-.5.7-.8 1-.2-.1-.4-.3-.6-.5zm3.5 1.6c.1-.7.2-1.3.2-2h.2c-.1.7-.1 1.4 0 2h-.4zm3.7-1.3c-.4-.5-.9-1-1.3-1.5.2-.2.4-.4.5-.6.5.4 1.1.8 1.7 1.2-.3.2-.6.6-.9.9z" fill="#0c0d59" stroke-width="none" opacity="1" stroke="none"></path><path id="SvgjsPath11247" d="M119.9 90.6c1.6 0 2.9 1.3 2.9 2.9s-1.3 2.9-2.9 2.9-2.9-1.3-2.9-2.9 1.3-2.9 2.9-2.9z" fill="#000000" stroke-width="none" opacity="1"></path><path id="SvgjsPath11248" d="M118.3 91c.6 0 1.1.5 1.1 1.1s-.5 1.1-1.1 1.1-1.1-.5-1.1-1.1.5-1.1 1.1-1.1zm3.6 4.1c.4 0 .6.3.6.6s-.3.6-.6.6-.6-.3-.6-.6.3-.6.6-.6z" fill="#ffffff" stroke-width="none" opacity="1"></path></g></g></g><g id="svga-group-eyesfront-right"><path id="SvgjsPath11199" d="M120 83.1c-5.9 0-10.6 5.2-10.6 11.5s4.7 11.5 10.6 11.5 10.6-5.2 10.6-11.5-4.8-11.5-10.6-11.5zm5.6 12.6c-1.5 1.5-4.7 3.8-7.6 4.2-2.9.4-6.2-.1-6.2-.1s-.1-4 2.3-6.6c2.4-2.6 6.4-5.6 14.3-2.8 0 0-1.3 3.7-2.8 5.3z" fill="#ffd0bc" stroke-width="none" opacity="1" stroke="none"></path><path id="SvgjsPath11202" d="M128.7 90.2c0-.1 0-.2-.1-.3-3.4-2.2-9.2-1.4-12.4.7-2.8 1.8-5.4 5.6-4.5 9.1-.1.1-.1.4.1.4 7.4 1.7 14.7-2.4 17.1-9.5 0-.2-.1-.3-.2-.4zm-6.5 7.7c-3.2 1.9-6.6 1.8-10.2 1.7.6-3.6 1.8-6.7 5.2-8.5 1.8-1 3.9-1.5 6-1.4 1.7 0 3.2.6 4.9.8-1.1 3-3.1 5.7-5.9 7.4z" fill="#582311" stroke-width="none" opacity="1" stroke="none"></path></g></g></g><g id="svga-group-facehighlight-single"></g><g id="svga-group-eyebrows-left-move" transform="matrix(1,0,0,1,0,0)"><g id="svga-group-eyebrows-left-rotate" transform="matrix(1,0,0,1,0,0)"><g id="svga-group-eyebrows-left" transform="matrix(1,0,0,1,0,0)"><path id="SvgjsPath11115" d="M67.9 82.7c.4-.7.8-1.3 1.2-1.9.1-.3.2-.5.4-.8.3-.6.6-1.2 1.1-1.6.3-.6.9-1.2 1.3-1.7.6-.7 1.7-1.5 2.6-.9 0 0 .1 0 .1.1 1.2-.4 2.7-.5 3.9-.3 1.6.2 3.1.7 4.6 1.2 1.2.4 2.4.8 3.5 1.4.1-.1.3-.2.4-.1 1.1.1 2.3.4 3.1 1.3.1.1.1.1.1.2.3.1.6.2.8.4h.1c.3.1.7.3.9.6.8.3 1.4 1.3 1.7 2.1.4 1.1-.1 2.7-1.2 3.3 0 .1-.1.3-.2.4-.6.6-1.7.4-2.7 0h-.1c-3.3-1.1-6.5-2.6-9.6-4.3-1.4-.4-2.7-.9-4-1.3-.5-.2-1.3-.3-1.8-.6 0 .1-.1.2-.2.3-.7.3-1.4.6-2 .9-.4.2-.9.5-1.3.6-.1.2-.3.4-.4.6-.4.5-.9 1.4-1.6 1.6-.2.4-.4.8-.8.8-.2 0-.3 0-.4-.2-.3-.9.3-1.6.5-2.1z" fill="#b84131" stroke-width="none" opacity="1" stroke="none"></path><path id="SvgjsPath11116" d="M89.8 86.1c.2-1.1.6-2.1.5-3.2-.1-1.2-.5-2.2-1-3.3-.1-.2.2-.5.4-.3 1.6 1.7 1.9 5.1.4 7-.1.1-.3 0-.3-.2zm1.5 0c.4-.7.8-1.5.9-2.3.1-.8-.1-1.5-.1-2.3 0-.2.2-.2.3-.1 1.1 1.4.4 3.8-.7 5-.2.2-.6-.1-.4-.3zM82 76.4c3 1.7 5.3 5.6 5.7 9 0 .2-.3.2-.4.1-.6-1.7-1.2-3.3-2.1-4.8-1-1.5-2.2-2.6-3.4-3.9-.4-.2-.1-.5.2-.4zm-4.6-.7c2.7 1.6 6.1 3.5 6.2 7 0 .3-.3.3-.4.1-.6-1.6-1.3-2.8-2.5-3.9-1.1-1-2.4-1.8-3.5-2.8-.2-.2 0-.5.2-.4zm-5.7 1.8c4.2-1.6 8 2.1 10.3 5.1.1.2-.2.4-.3.2-1.3-1.3-2.6-2.8-4.2-3.7-1.9-1.1-3.7-1-5.7-1.2-.3.1-.4-.3-.1-.4zm-4 4.7c1.2-1.3 2.8-1.9 4.5-2.3.2-.1.3.3.1.4-1.6.5-2.9 1.4-4.4 2.2-.2.1-.4-.2-.2-.3z" fill="#c75849" stroke-width="none" opacity="1" stroke="none"></path><path id="SvgjsPath11117" d="M66.4 86c0 .2.3.4.4.2 0 0 .1 0 .1-.1 2.6-2.8 5.2-6.1 9.5-4.9 3.1.9 5.9 2.9 8.9 4.1 2.1.8 5.9 2.9 7.9.9 2-1.9.7-4.9-.6-6.8-.2-.3-.7 0-.5.3-.8-.8-1.7-1.5-2.6-1.7-.2-.1-.3.2-.3.3-.3-.2-.6-.3-.9-.4-.9-.5-1.9-1.1-3-1.4-.2-.1-.5.3-.3.5-2.4-1.1-5.2-2-7.9-2.3H76.8c-1.9-.2-3.7 0-5.3.7-.4.2-.3.6-.1.7-.2.1-.4.2-.6.4-.6.4-1.4 1-1.6 1.8 0 .1 0 .2.1.3-.5.6-.9 1.3-1.3 2.1-.5 1.4-1.7 3.6-1.6 5.3zm11.7-10.1c1.1.8 2.3 1.6 3.2 2.7 1.3 1.5 2 3.2 2.6 5-.1-.1-.2-.1-.4-.2-.8-2.1-2.2-3.9-4-5.3-1-.8-2.4-1.7-3.8-2.3.9 0 1.6 0 2.4.1zm13.1 10.2c.7-.8 1-2.1 1-3.1 0-1.2-.4-2.2-1.1-3.1.1 0 .2.1.3.1.6.6 1.2 1.2 1.7 1.8.5 1.3.6 2.7-.5 3.7-.3.4-.8.6-1.4.6zm-6.5-2.2c-.4-2-1.3-3.9-2.6-5.4-.6-.7-1.3-1.6-2.2-2.3 2.5.6 4.8 1.6 7.3 2.4.2.1.3-.1.3-.2.2.1.5.2.8.3.6.3 1.2.6 1.8.8.9 1.1 1.5 2.4 1.3 3.9-.1 1-.6 1.8-1 2.6-.1 0-.2 0-.3-.1.3-1.2.1-2.8-.5-3.8-.1-.2-.5-.1-.4.1l.3 2.1v1.4c-.8-.2-1.6-.6-2.2-.8-1-.2-1.8-.6-2.6-1zm-12.9-3.3c-1.5.7-2.8 1.8-3.8 3.1.2-.7.4-1.3.7-2 .8-1.8 1.8-3.2 3.1-4.6.1-.1.1-.2 0-.2.6-.3 1.2-.6 1.7-.9h.2c.9.4 1.8.6 2.7 1 1 .5 1.9 1.1 2.8 1.8 1.4 1.2 2.5 2.6 3.4 4.2-1.4-.7-2.8-1.4-4.2-2-1-.4-2.1-.8-3.2-.9-1.4-.9-3.2-1.3-4.7-.5-.2.1-.1.4.1.4.9-.1 1.8-.1 2.7.1-.5.1-1 .2-1.5.5z" fill="#a92d1c" stroke-width="none" opacity="1" stroke="none"></path></g></g></g><g id="svga-group-eyebrows-right-move" transform="matrix(1,0,0,1,0,0)"><g id="svga-group-eyebrows-right-rotate" transform="matrix(1,0,0,1,0,0)"><g id="svga-group-eyebrows-right" transform="matrix(1,0,0,1,0,0)"><path id="SvgjsPath11118" d="M132 82.8c-.4-.7-.8-1.3-1.1-2-.1-.3-.2-.5-.4-.8-.3-.6-.6-1.2-1.1-1.6-.3-.6-.9-1.2-1.3-1.7-.6-.7-1.7-1.6-2.6-1 0 0-.1 0-.1.1-1.2-.4-2.7-.5-3.9-.4-1.6.2-3.1.7-4.7 1.2-1.2.4-2.4.7-3.5 1.3-.1-.1-.3-.2-.4-.1-1.1.1-2.3.4-3.1 1.3-.1.1-.1.1-.1.2-.3.1-.6.2-.8.4h-.1c-.3.1-.7.3-.9.6-.8.3-1.4 1.3-1.7 2.1-.4 1.1.1 2.7 1.1 3.3 0 .1.1.3.2.4.6.6 1.7.4 2.7 0h.1c3.3-1.1 6.6-2.5 9.6-4.2 1.4-.4 2.7-.9 4-1.3.5-.2 1.3-.3 1.9-.6 0 .1.1.2.2.3.7.3 1.4.6 2 .9.4.2.9.5 1.3.6.1.2.3.4.4.6.4.5.9 1.4 1.6 1.6.2.4.4.8.8.8.1 0 .3 0 .4-.1.4-.6-.2-1.4-.5-1.9z" fill="#b84131" stroke-width="none" opacity="1" stroke="none"></path><path id="SvgjsPath11119" d="M110.1 86.1c-.2-1.1-.5-2.1-.5-3.2.1-1.2.5-2.2 1-3.3.1-.2-.2-.6-.4-.3-1.7 1.7-2 5.1-.4 7 .1 0 .4-.1.3-.2zm-1.4-.1c-.4-.7-.8-1.5-.9-2.3-.1-.8.1-1.5.1-2.3 0-.2-.2-.2-.3-.1-1.1 1.4-.4 3.8.7 5 .2.1.5-.1.4-.3zm9.4-9.6c-3 1.7-5.4 5.5-5.7 8.9 0 .2.3.3.4.1.6-1.6 1.2-3.3 2.2-4.7 1-1.5 2.2-2.6 3.5-3.8.1-.3-.1-.7-.4-.5zm4.5-.7c-2.7 1.6-6.1 3.5-6.3 6.9 0 .3.3.3.4.1.6-1.6 1.3-2.8 2.6-3.9 1.1-1 2.4-1.8 3.6-2.7.2-.2-.1-.5-.3-.4zm5.8 1.9c-4.2-1.6-8 2.1-10.4 5-.1.2.2.4.3.2 1.3-1.3 2.6-2.7 4.3-3.7 1.9-1.1 3.7-1 5.7-1.1.3.1.3-.3.1-.4zm3.9 4.7c-1.1-1.3-2.8-2-4.5-2.3-.2-.1-.3.3-.1.4 1.6.5 2.9 1.4 4.3 2.2.3.1.4-.2.3-.3z" fill="#c75849" stroke-width="none" opacity="1" stroke="none"></path><path id="SvgjsPath11120" d="M131.8 80.8c-.4-.7-.8-1.4-1.3-2.1.1-.1.1-.2.1-.3-.1-.8-1-1.4-1.6-1.8-.2-.1-.4-.3-.6-.4.3-.2.3-.6-.1-.7-1.6-.7-3.4-.9-5.2-.7H122.8c-2.7.2-5.5 1.2-7.9 2.2.2-.2-.1-.5-.3-.5-1 .2-2 .9-3 1.3-.3.1-.6.3-.9.4.1-.2-.1-.4-.3-.3-.9.2-1.9.9-2.6 1.7.2-.4-.3-.7-.5-.3-1.3 1.9-2.6 4.8-.7 6.8 2 2 5.8 0 7.9-.8 3-1.2 5.8-3.2 9-4.1 4.3-1.2 6.9 2.1 9.5 5l.1.1c.2.2.4 0 .4-.2.1-1.7-1-3.9-1.7-5.3zm-7.6-5c-1.4.5-2.8 1.4-3.8 2.2-1.8 1.4-3.2 3.2-4 5.3-.1.1-.2.1-.4.2.6-1.8 1.4-3.5 2.7-5 .9-1.1 2.1-1.8 3.3-2.7h2.2zm-16.9 9.6c-1.1-1-.9-2.4-.4-3.7.6-.6 1.1-1.2 1.7-1.8.1 0 .2-.1.3-.1-.7.9-1.1 1.9-1.1 3.1 0 1 .2 2.2.9 3.1-.5 0-1-.2-1.4-.6zm5.5-.5c-.6.2-1.4.6-2.2.8 0-.4-.1-.9 0-1.4.1-.7.3-1.4.3-2.1 0-.2-.3-.3-.4-.1-.7.9-.8 2.5-.6 3.8-.1 0-.2 0-.4.1-.4-.9-.9-1.6-1-2.7-.1-1.4.4-2.8 1.4-3.8.6-.3 1.2-.6 1.8-.8.2-.1.5-.2.8-.3 0 .1.1.3.3.2 2.5-.7 4.8-1.7 7.3-2.3-.8.7-1.6 1.5-2.2 2.3-1.3 1.6-2.2 3.4-2.6 5.4-.8.3-1.6.6-2.5.9zm13.9-4.7c.8-.2 1.7-.2 2.7-.1.2 0 .3-.3.1-.4-1.5-.8-3.3-.4-4.7.5-1.1.1-2.2.4-3.2.9-1.4.6-2.8 1.3-4.2 2 .9-1.6 2-3 3.5-4.2.9-.7 1.8-1.3 2.8-1.8.9-.4 1.8-.6 2.7-1h.2c.6.3 1.2.6 1.7.9 0 .1-.1.2 0 .2 1.3 1.4 2.4 2.8 3.1 4.6.2.6.4 1.3.6 2-1-1.3-2.2-2.5-3.8-3.2-.5-.2-1-.4-1.5-.4z" fill="#a92d1c" stroke-width="none" opacity="1" stroke="none"></path></g></g></g><g id="svga-group-beardwrap" transform="matrix(1,0,0,1,0,0)"><g id="svga-group-beard-single-move" transform="matrix(1,0,0,1,0,0)"><g id="svga-group-beard-single" transform="matrix(1,0,0,1,0,0)"></g></g></g><g id="svga-group-mustache-single-move" transform="matrix(1,0,0,1,0,0)"><g id="svga-group-mustache-single" transform="matrix(1,0,0,1,0,0)"></g></g><g id="svga-group-nose-single-move" transform="matrix(1,0,0,1,0,0)"><g id="svga-group-nose-single" transform="matrix(1,0,0,1,0,0)"><path id="SvgjsPath11299" d="M107.41 107.88c1.55 1.26 2.35 2.79 2.47 4.02s-.64 2.35-1.59 2.87c-.96.52-2.59.2-3.74-1.23 0 0-2.31 1.63-3.11 1.83-.8.2-4.67-1-5.74-1.77 0 0-.83 1.53-2.78 1.13s-2.91-2.31-2.43-3.78c.48-1.47 1.59-2.59 2.19-3.07.6-.48 2.63-1.91 4.34-2.39s5.45-1.63 10.39 2.39z" fill="#ffd0bc" stroke-width="none" opacity="1" transform="translate(0 1)"></path><path id="SvgjsPath11300" d="M107.51 107.59c-.16-.15-.45-.01-.38.22.43 1.36 1.79 2.15 2.25 3.5.32.95.04 2.1-.72 2.76-1.18 1.03-2.63.6-3.71-.28-.05-.04-.11-.04-.17-.02.44-.2.91-.34 1.45-.33.26 0 .32-.33.13-.46-1.65-1.14-2.99.87-4.3 1.57-2.67 1.45-4.99-1.78-7.65-1.6-.21.01-.25.3-.05.37.33.12.65.26.98.42-.46.21-.9.47-1.39.56-1.14.22-2.29-.32-2.87-1.31-1.27-2.13.63-3.92 1.98-5.32.09-.1-.02-.25-.14-.19-2.11 1.14-3.89 4.02-2.26 6.26 1.09 1.49 4.17 2.16 5.13.21 1.52.76 3.06 1.73 4.69 1.82 1.79.09 2.83-1.29 4.24-1.97-.06.04-.08.12-.03.2 1.25 1.82 4 1.58 5.12-.24 1.41-2.29-.66-4.66-2.3-6.17z" fill="#d17f5b" stroke-width="none" opacity="1" transform="translate(0 1)"></path><path id="SvgjsPath11301" d="M94.75 106.69c1.2-.53 2.39-1 3.69-1.22 1.29-.22 2.56-.08 3.86-.15.16-.01.18-.22.04-.27-1.59-.58-3.53-.4-5.25.2 1.56-2.44 2.21-5.68 1.65-8.5-.04-.2-.33-.14-.34.05-.11 3.13-.66 5.77-1.83 8.65-.71.29-1.37.63-1.94 1.03-.14.09-.03.27.12.21z" fill="#d17f5b" stroke-width="none" opacity="1" transform="translate(0 1)"></path><path id="SvgjsPath11302" d="M105.64 107.55c-2.17-2.46-6.64-2.22-8.92-.1-.27.25-.16.8.23.87 1.18.21 2.31.1 3.5.12 1.43.03 2.34.52 3.46 1.36 1.36 1.02 2.74-1.1 1.73-2.25z" fill="#ffd9c9" stroke-width="none" opacity="1" transform="translate(0 1)"></path></g></g><g id="svga-group-hair-front" transform="matrix(1,0,0,1,0,0)"><path id="SvgjsPath11345" d="M62.9 41.7s-3.6 12.5-2.2 21.4c0 0 8.8-7.1 15.3-9.5s13.2.7 18.8 1.4c5.6.7 16.8.7 21.2-1s14.1 1 18 5.8 5.4 7.8 6.1 7.8-.9-20.7-.9-20.7l-2.5-5.2-3.1.7-2.2-3-3.4-.5c0-.2-1.8 0-2.1.3-.4.4-1.9-1.5-1.9-1.5l-1.6.4-1.1-1.5-1.9.5-1.9-2.1-1.4 1.4-2.3-1.2-2.2 1-1.9-2.5-1.8 1.6-2.5-1.8-1.7 1.3-2.4-1.4-2.9 1.9-1.4-3.1-1.6 3.1-2-2.6-2.2 1.7-3.2-1.7-1 2.9-1.7-2.1-1.3 2.6-2.5-2.4-1.6 2.8-2.4-1.6-1.5 2.3-1.7-2.2-1.2 1.9-1.7-1.2-1.2 2.3-1.9-.7-1.7 3.6-1.7-1-.2 1.9-1.8-.1z" fill="#b84131" stroke-width="none" opacity="1" stroke="none"></path><path id="SvgjsPath11346" d="M60.6 62.7c.3-3.8.2-7.5.7-11.3.5-3.8 1.5-7.4 2.4-11.1.1-.6-.7-.8-.9-.2-2.6 6.7-4 15.6-2.8 22.7.1.4.6.3.6-.1zm1 .6c1.2-1.5 2.2-3.2 3.2-4.9.9-1.5 1.9-2.9 2.6-4.6.2-.5-.5-.8-.8-.5-1.2 1.3-2 2.9-2.9 4.4-1 1.7-2 3.3-2.9 5.1-.2.6.4 1 .8.5zm5.3-5.7c.9-1.2 1.8-2.5 2.6-3.7.7-1.1 1.6-2.2 2-3.5.1-.4-.4-.7-.7-.4-1 .9-1.6 2.2-2.3 3.4-.8 1.3-1.5 2.6-2.2 4-.1.2.3.5.6.2zm5.7-2.6c.8-1.1 1.5-2.2 2.1-3.4.4-.9 1-1.9.8-3-.1-.3-.4-.3-.6-.2-.8.7-1 1.9-1.4 2.8-.5 1.1-1 2.3-1.6 3.4-.2.5.4.8.7.4zm4.3-1.5c.3-.7.6-1.4.8-2.2.3-.7.6-1.3.6-2 0-.4-.6-.7-.8-.3-.5.6-.7 1.2-.9 1.9-.3.8-.5 1.5-.8 2.3-.2.7.8 1 1.1.3zm5-.1c2.8-3.6 5.3-8.8 4.7-13.5-.1-.4-.7-.4-.8 0-.6 2.1-.8 4.3-1.5 6.4-.7 2.3-1.8 4.5-3 6.6-.3.4.3.9.6.5zm5.3-.6c1.2-2.8 2.2-5.9 2.6-8.9.1-.4-.5-.8-.7-.3-1.3 2.8-2.1 6-2.6 9-.2.6.5.7.7.2zm-8.1-18.1c-.6 1.1-1.1 2.2-1.5 3.3-.4 1.1-1.2 2.3-1.2 3.5 0 .4.5.6.7.3.7-.8 1-2 1.4-3 .5-1.3.9-2.5 1.2-3.8.2-.4-.4-.7-.6-.3zm-2.7 1.4c-.3.9-.6 1.8-1 2.7-.3.7-.8 1.5-1 2.2-.1.5.5.8.8.5 1.3-1.2 1.8-3.6 2-5.2.1-.6-.7-.7-.8-.2zm-4.7 1.2c-1.3 2.2-2.8 4.5-3.6 6.9-.1.4.4.5.6.3 1.5-2.1 2.6-4.5 3.6-6.8.1-.4-.4-.8-.6-.4zm-4.8 2.4c-.8 1.6-2 3.3-2.5 5-.1.4.4.8.7.4 1.1-1.4 1.8-3.4 2.6-5 .3-.5-.5-1-.8-.4zm-4 .7c.2 1.4.2 2.8.7 4.1.2.4.7.4.8-.1.1-1.4-.3-2.8-.6-4.2-.1-.4-1-.3-.9.2zm66.3 15.2c.9 1.2 1.9 2.3 3 3.4.9 1 1.9 2.1 3 2.8.3.2.7-.2.5-.5-.7-1.2-1.7-2.2-2.7-3.2-1-1.1-2.1-2.2-3.2-3.2-.4-.3-.9.3-.6.7zm11.2 12c.8-6.6 1-14.6-.8-21.1-.1-.4-.7-.3-.7.1-.3 6.9.6 14.1.9 21 0 .4.5.4.6 0zm-2.6-7.4c-.1-4.2-.5-8.6-1.5-12.6-.1-.4-.8-.3-.8.1 0 4.2.7 8.6 1.6 12.6.1.4.7.3.7-.1zm-5.3-16.9c-.2.6-.2 1.3-.2 1.9s-.2 1.3 0 1.9c.1.5.8.5 1 0 .2-.6.2-1.3.2-1.9 0-.6.1-1.3-.1-1.9-.1-.5-.8-.4-.9 0zm-.9 3.4c-.3-1.9-.5-4-1.3-5.8-.1-.3-.7-.2-.7.2 0 1.9.8 4 1.3 5.8.1.4.8.2.7-.2zm-3.9-7.3c-.1 1.4-.4 3.2.1 4.6.1.4.7.4.8 0 .5-1.4.2-3.1.1-4.6 0-.7-1-.7-1 0zm-9.2-2.2c0 1.7-.2 3.6.4 5.2.1.3.6.4.7 0 .5-1.6.1-3.5 0-5.2 0-.7-1.1-.7-1.1 0zm-.8 3.5c-.4-1.7-.7-3.5-1.5-5.1-.2-.3-.6-.2-.6.2 0 1.8.6 3.5 1 5.3.2.6 1.3.3 1.1-.4zm-5.4-6.2c0 1.6 0 3.2.5 4.8.1.3.6.3.6 0 .4-1.6.2-3.1.1-4.8-.1-.7-1.2-.8-1.2 0zm-7 4c-.1-1.5-.1-3.3-.7-4.8-.2-.4-.7-.4-.8.1-.2 1.5.4 3.3.7 4.8.1.4.9.4.8-.1zm-2.3 0c0-.6 0-1.1-.1-1.7 0-.5 0-1-.2-1.5-.2-.4-.7-.2-.8.1-.2.5-.1 1 0 1.5s.1 1.1.2 1.6c0 .6.9.6.9 0zM97.7 53c.8-3.5 1.1-7.4-.3-10.8-.1-.3-.5-.3-.5.1-.1 3.6.4 7 .1 10.6 0 .5.6.6.7.1zm6.1.2c.1-2.4.4-4.9.1-7.2 0-.3-.6-.5-.7-.1-.4 2.4-.2 4.9-.2 7.3 0 .5.8.5.8 0zM94 54.7c.3-3 .5-5.9.6-8.9 0-.5-.7-.5-.8 0-.2 3-.3 5.9-.3 8.9.1.3.5.2.5 0zm15.1-1.1c.1-1 .4-2.3.1-3.3-.1-.4-.6-.3-.7 0-.4 1-.3 2.3-.3 3.3-.1.6.9.6.9 0zm3.5-.3c.1-.9.5-2 .3-2.9 0-.3-.4-.5-.6-.2-.4.8-.4 1.9-.6 2.8 0 .6.9.8.9.3zm8 1.4c.2-2.8.5-5.9.2-8.7-.1-.5-.8-.7-.9-.1-.5 2.9-.3 5.9-.3 8.8.1.6 1 .6 1 0zm4.5-.1c.2-1.5.7-3.1.6-4.6 0-.5-.7-.6-.8-.1-.5 1.4-.6 3-.8 4.4-.2.7.9 1 1 .3zM97.5 32.8c-.3.9-.4 1.9-.6 2.8-.1.8-.3 1.6-.2 2.3.1.4.7.4.8.1.4-.8.5-1.7.6-2.5.1-.9.3-1.7.4-2.6.1-.5-.8-.6-1-.1zm-2.3 1.6c-.3 1.2-.9 2.5-.9 3.7 0 .4.6.6.8.2.6-1.1.6-2.5.8-3.8 0-.4-.6-.6-.7-.1zm-3.4.8c-.3 1-.7 2.2-.8 3.3 0 .2.4.3.5.1.5-1 .7-2.2.9-3.2.1-.4-.5-.6-.6-.2zM87.6 34c-.2 2.1-.6 4.3-.3 6.4 0 .4.6.5.7.1.5-2.1.4-4.3.5-6.5 0-.5-.8-.5-.9 0zm-2.7 2.6c-.1 1.7-.7 3-1.4 4.5.2.1.5.2.7.3.4-1.2 0-3-.8-4-.2-.3-.6 0-.6.3.1.6.3 1.2.4 1.8.1.6.1 1.2.2 1.8.1.4.6.4.7.1 1-1.4 1.2-3.2 1.1-4.9 0-.1-.3-.1-.3.1zm-2.8-.7c-.2 1.5-.6 3-.4 4.5 0 .3.5.4.6.1.4-1.4.3-3.1.3-4.5-.1-.3-.5-.4-.5-.1zm25.5-1.1c.5 1.7.9 3.3 1.6 4.9.1.3.6.1.5-.2-.3-1.7-.9-3.3-1.4-4.9-.1-.5-.8-.3-.7.2zm-3.1 6.4c.5 2 .9 4.4 1.9 6.3.2.4.8.2.8-.2-.2-2.1-1.2-4.3-1.9-6.3-.2-.5-1-.3-.8.2zm3 1.3c.1 1.6.2 3.4.8 4.9.2.4.7.2.8-.2.1-1.5-.4-3.3-.8-4.8-.1-.4-.8-.3-.8.1zm16.3-5.2c-.2.9-.4 2-.1 3 .1.2.5.3.6.1.4-.9.3-2 .3-2.9 0-.5-.7-.7-.8-.2z" fill="#a92d1c" stroke-width="none" opacity="1" stroke="none"></path><path id="SvgjsPath11347" d="M61.9 54.1c.1-3.5 1.4-6.7 1.3-10.2 0-.4-.5-.3-.6 0-.4 3.7-2.4 7.6-1.5 11.4.1.3.5.3.6.1.4-.6.3-.4.4-1.2.1-.2-.1-.2-.2-.1zm5-6.1c-.1.1-.1.2-.2.3-.1-1-.1-2.1-.2-3.1 0-.3-.5-.3-.5 0-.1 1.4 0 2.8 0 4.2 0 .3.5.6.7.3.3-.4.7-.9.8-1.5-.1-.3-.4-.5-.6-.2zm2.7-1.5c.1-.8-.1-1.7-.6-2.4-.2-.3-.6 0-.5.3.4.8.4 1.6.3 2.5-.1.3.3.7.6.4l.3-.3c.1-.3 0-.5-.1-.5zm7.1-9c-.7 2.8-1.8 5.8-1.8 8.6 0 .2.3.3.4.1 1.1-2.6 1.2-5.8 1.7-8.6.1-.2-.2-.3-.3-.1zm2.4 1.7c-.3 1.6-.8 3.3-1 4.9 0 .3.4.4.6.2.7-1.5.8-3.4 1-5 0-.4-.5-.5-.6-.1zm1.2 1c-.2.9-.6 2-.5 2.9 0 .3.4.3.5.1.2-.4.3-.9.3-1.3l.2-1.5c.3-.4-.4-.6-.5-.2zm8.1-3.3c-.2 2.5-.8 5-1 7.6 0 .3.5.4.6.1.8-2.4.9-5.1 1-7.7 0-.3-.5-.3-.6 0zm2.8 1c-.4 1.8-1 3.7-1.1 5.6 0 .4.6.5.7.1.6-1.7.8-3.7 1.1-5.5.2-.5-.6-.7-.7-.2zm2 1.1c0-.4-.7-.4-.7 0 0 .6-.1 1.4.1 2 .1.2.4.2.5 0 .2-.6.1-1.3.1-2zm7.4-2.3c-.2 1.4-.4 2.8-.3 4.2 0 .2.3.3.4 0 .4-1.4.4-2.9.6-4.3-.1-.3-.6-.3-.7.1zm2.4 1.2c-.1 1-.4 2-.4 3 0 .2.2.2.3 0 .3-.9.3-2 .5-2.9 0-.2-.4-.3-.4-.1zm1.6.1c-.3.5-.5 1.5.2 1.8.1 0 .3 0 .3-.1.1-.5-.1-.9.2-1.4.1-.3-.5-.7-.7-.3zm1.5.4c0 .4 0 .9.1 1.3 0 .1.2.1.3 0 .1-.4.1-.9.1-1.3 0-.3-.5-.3-.5 0zm7.7 1.1c0-.3-.5-.4-.5-.1-.3 2.3-.8 5.1-.2 7.3.1.3.5.3.6 0 .2-1.1 0-2.3 0-3.4 0-1.3.1-2.6.1-3.8zm2.4.6c-.2 1.7-.8 3.8-.5 5.5.1.3.5.2.5 0 .3-.8.3-1.8.3-2.6.1-1 .1-2 .2-3 .2-.3-.4-.3-.5.1zm3.4 1.3v-1.9c0-.5-.7-.4-.7 0-.1 1.2-.3 2.8.2 4 .1.3.5.1.5-.1.1-.8 0-1.4 0-2zm2.5-.1c-.1-.5-.1-1-.2-1.5-.1-.4-.7-.4-.7 0 .1.5.1 1.1.2 1.6.1.4.1.9.3 1.3.1.2.3.1.4 0 .1-.5 0-.9 0-1.4zm1.5-.8c0-.4-.7-.4-.7 0 0 .8-.1 1.6.1 2.4.1.2.4.2.4 0 .3-.8.2-1.6.2-2.4zm2.5 2.8c-.2-.3-.7-.1-.6.2.8 2.3 1 4.6 1.7 7 .1.3.5.2.6-.1.1-2.4-.8-4.9-1.7-7.1zm3.7 1.6c0-.5-.8-.5-.7 0 .1 1.7 0 3.5.4 5.2.1.4.6.3.7-.1.1-1.6-.3-3.4-.4-5.1zm2.7.3c0-.5-.8-.5-.8 0 .1 1.7 0 3.7.4 5.4.1.4.6.3.7-.1.1-1.8-.2-3.6-.3-5.3zm1.4 1.8c-.1-.3-.7-.3-.6.1.2 2.2.3 4.5 1 6.7.1.4.7.3.7-.1-.1-2.3-.7-4.6-1.1-6.7zm4 2c-.1-.4-.8-.3-.7.2.7 2.2.8 4.5 1.3 6.8.1.4.6.3.6-.1.2-2.2-.5-4.7-1.2-6.9z" fill="#c75849" stroke-width="none" opacity="1" stroke="none"></path></g><g id="svga-group-glasses-single-move" transform="matrix(1,0,0,1,0,0)"><g id="svga-group-glasses-single" transform="matrix(1,0,0,1,0,0)"></g></g></g></g></g><rect id="svga-credit-rect" width="200" height="15" x="0" y="185" fill="#ecf0f1" opacity="0.5" style="display: none;"></rect><text id="svga-credit-text" font-family="Avenir Next, Roboto, Helvetica, Arial, sans-serif" font-size="10px" text-anchor="start" font-weight="400" size="10px" anchor="start" weight="400" fill="#333333" x="33.298973083496094" y="182.60824728012085" style="display: none;"><tspan id="SvgjsTspan10649" dy="13" x="33.298973083496094">Created on AvatarMaker.com</tspan></text></g></svg>